<svg id="svg"
     version="1.1"
     xmlns="http://www.w3.org/2000/svg"
     xmlns:xlink="http://www.w3.org/1999/xlink"
     width="400"
     height="245"
     viewBox="0, 0, 400,245.83783783783784">
  <g id="svgg">
    <path id="path0"
          d="M0.000 122.919 L 0.000 245.838 200.000 245.838 L 400.000 245.838 400.000 122.919 L 400.000 0.000 200.000 0.000 L 0.000 0.000 0.000 122.919 M167.496 22.822 C 178.877 25.277,181.512 26.814,184.589 32.795 C 191.390 46.015,187.285 59.283,167.467 88.131 C 159.115 100.289,153.511 109.057,153.865 109.411 C 154.619 110.165,169.214 111.064,190.801 111.686 C 197.098 111.868,202.284 112.050,202.325 112.091 C 202.366 112.132,198.965 112.230,194.767 112.308 C 176.271 112.654,151.997 113.081,150.793 113.081 L 149.478 113.081 139.772 124.054 C 134.434 130.089,124.287 141.516,117.223 149.448 L 104.381 163.869 101.562 160.151 C 95.762 152.498,87.927 143.659,74.815 129.972 C 72.137 127.176,68.389 123.260,66.486 121.269 L 63.027 117.649 57.297 117.627 C 38.648 117.555,29.838 116.959,29.838 115.767 C 29.838 114.676,35.964 113.770,46.486 113.304 C 55.410 112.909,58.970 112.509,59.177 111.880 C 59.300 111.504,55.951 106.069,50.993 98.595 C 35.733 75.591,31.943 61.980,36.695 47.244 C 40.719 34.766,45.817 31.538,59.246 32.963 C 72.552 34.376,83.834 41.999,93.389 56.035 C 96.485 60.582,99.771 64.216,100.787 64.216 C 101.375 64.216,105.324 59.303,108.868 54.162 C 112.204 49.324,113.489 47.770,117.278 43.991 C 132.402 28.909,153.833 19.875,167.496 22.822 M157.514 26.408 C 143.727 28.146,126.840 38.566,116.186 51.907 C 112.046 57.091,110.589 59.497,104.635 70.973 C 102.799 74.511,101.249 77.405,101.189 77.404 C 101.130 77.403,100.011 75.388,98.703 72.924 C 92.609 61.448,81.636 48.295,71.706 40.563 C 63.926 34.506,53.285 33.530,46.970 38.295 C 38.257 44.869,36.564 64.714,43.543 78.486 C 50.494 92.207,64.087 110.639,69.058 113.086 C 74.033 115.535,75.228 113.384,76.868 99.027 C 77.724 91.527,79.016 85.638,80.075 84.407 L 80.568 83.834 81.405 84.566 C 83.497 86.394,86.477 91.875,93.086 106.054 C 95.082 110.335,96.726 113.855,96.739 113.877 C 96.752 113.898,97.522 110.736,98.451 106.850 C 104.855 80.039,106.461 77.100,108.982 87.584 C 112.830 103.586,113.402 103.130,122.169 77.081 C 129.501 55.297,132.481 49.455,133.884 54.118 C 134.246 55.323,134.241 65.693,133.875 70.378 C 133.726 72.281,133.319 77.341,132.971 81.622 C 131.646 97.897,131.401 107.629,132.241 110.655 C 132.655 112.147,135.906 112.724,138.500 111.767 C 145.946 109.017,155.123 99.190,168.468 79.676 C 179.388 63.708,182.933 54.376,183.006 41.405 L 183.027 37.730 182.313 36.216 C 179.059 29.315,168.276 25.051,157.514 26.408 M126.193 81.385 C 124.977 84.084,123.688 87.512,119.539 99.084 C 115.926 109.164,113.578 114.162,112.456 114.162 C 111.496 114.162,110.185 111.194,108.969 106.270 C 106.727 97.191,104.483 98.738,102.379 110.811 C 101.401 116.420,100.144 120.615,99.092 121.778 C 97.738 123.274,95.561 120.384,89.332 108.819 C 84.833 100.467,82.662 97.541,81.785 98.649 C 81.002 99.636,80.216 104.353,80.216 108.058 C 80.216 114.583,79.134 117.618,76.803 117.624 C 74.703 117.629,72.928 119.235,73.498 120.612 C 75.312 124.992,102.972 154.146,105.326 154.160 C 107.520 154.173,137.317 119.954,137.294 117.447 C 137.284 116.318,135.682 115.703,132.043 115.431 C 126.734 115.033,126.457 114.319,127.137 102.811 C 128.040 87.538,128.205 79.470,127.628 78.893 C 127.485 78.750,127.003 79.586,126.193 81.385 M176.882 116.982 C 179.251 118.191,179.233 121.695,176.850 122.927 C 174.036 124.382,170.953 121.367,172.358 118.535 C 173.290 116.657,175.057 116.050,176.882 116.982 M270.659 116.856 C 273.196 117.389,275.481 118.363,278.270 120.099 C 279.419 120.815,283.678 125.028,283.671 125.443 C 283.669 125.601,283.265 126.014,282.773 126.362 L 281.880 126.994 281.427 126.466 C 281.177 126.175,280.778 125.696,280.541 125.401 C 276.787 120.742,268.254 118.147,262.595 119.942 C 250.260 123.856,246.412 142.267,255.789 152.507 C 262.331 159.652,274.306 159.057,281.477 151.231 C 282.942 149.632,282.892 149.647,283.887 150.498 C 284.789 151.269,284.734 151.412,282.714 153.524 C 270.533 166.261,249.340 160.083,245.734 142.743 C 242.648 127.900,256.209 113.816,270.659 116.856 M194.255 120.795 C 194.332 120.995,194.383 123.014,194.368 125.282 L 194.342 129.405 199.117 129.464 C 201.743 129.496,203.890 129.593,203.888 129.680 C 203.885 129.767,203.758 130.324,203.604 130.919 L 203.324 132.000 198.842 132.108 L 194.360 132.216 194.374 141.759 C 194.388 152.042,194.434 152.531,195.574 154.505 C 197.671 158.134,202.406 158.540,205.784 155.380 L 206.826 154.406 207.521 154.846 C 208.495 155.462,208.405 155.798,206.861 157.304 C 202.102 161.947,193.883 160.878,191.028 155.245 C 189.754 152.730,189.772 152.903,189.638 142.162 L 189.514 132.216 186.530 132.156 L 183.546 132.096 183.611 130.859 L 183.676 129.622 186.793 129.514 C 189.892 129.406,189.912 129.402,190.073 128.865 C 190.162 128.568,190.636 126.768,191.127 124.865 C 192.309 120.287,192.239 120.432,193.270 120.432 C 193.862 120.432,194.158 120.541,194.255 120.795 M229.297 129.601 C 235.362 131.256,237.822 134.970,237.972 142.703 C 238.015 144.903,238.096 149.086,238.153 152.000 C 238.223 155.545,238.359 157.704,238.565 158.526 C 238.935 160.002,238.936 160.001,236.685 159.997 C 234.091 159.992,233.895 159.714,233.673 155.730 L 233.622 154.811 232.055 156.314 C 223.546 164.471,208.309 158.673,210.568 148.138 C 212.211 140.476,222.221 137.507,231.730 141.863 C 232.479 142.206,233.151 142.486,233.224 142.486 C 233.671 142.486,233.107 138.190,232.480 136.817 C 229.883 131.129,221.398 130.166,215.702 134.912 L 214.647 135.791 213.976 135.366 C 213.006 134.752,213.025 134.694,214.693 133.120 C 218.378 129.644,224.259 128.227,229.297 129.601 M305.838 129.410 C 310.442 130.285,313.894 133.360,315.073 137.638 C 315.211 138.136,315.369 142.191,315.457 147.459 C 315.576 154.640,315.678 156.749,315.966 158.019 C 316.421 160.022,316.440 160.000,314.243 160.000 C 311.668 160.000,311.687 160.017,311.353 157.307 C 311.034 154.726,311.044 154.736,310.015 155.838 C 301.952 164.476,286.235 159.272,287.981 148.541 C 289.275 140.591,299.859 137.361,309.500 141.976 C 310.914 142.653,310.919 142.651,310.919 141.420 C 310.919 132.313,300.987 128.697,293.116 134.939 C 292.087 135.756,292.061 135.763,291.495 135.403 C 290.574 134.818,290.565 134.643,291.414 133.764 C 293.349 131.758,296.282 130.136,299.459 129.316 C 300.666 129.004,303.957 129.052,305.838 129.410 M342.459 129.216 C 343.217 129.368,343.261 129.557,342.912 131.179 C 342.552 132.853,342.551 132.854,340.782 132.424 C 337.481 131.621,332.292 133.775,329.867 136.954 L 329.297 137.701 329.297 148.738 L 329.297 159.776 328.810 159.898 C 328.542 159.965,327.545 159.991,326.594 159.956 L 324.865 159.892 324.732 147.135 C 324.654 139.684,324.501 133.749,324.362 132.865 C 324.232 132.032,324.060 130.938,323.980 130.432 L 323.835 129.514 326.090 129.514 L 328.346 129.514 328.605 130.770 C 328.748 131.461,328.865 132.531,328.865 133.148 C 328.865 134.542,329.040 134.548,330.388 133.200 C 333.678 129.910,338.301 128.385,342.459 129.216 M364.000 129.379 C 371.009 130.904,376.176 136.892,376.209 143.528 C 376.222 146.217,377.688 145.946,363.141 145.946 L 350.514 145.946 350.621 146.757 C 351.801 155.698,359.994 160.036,368.116 156.020 C 369.966 155.105,370.495 154.674,372.937 152.085 C 373.224 151.780,374.218 152.256,374.607 152.884 C 374.767 153.144,373.101 155.211,371.832 156.326 C 363.166 163.939,349.482 160.022,346.148 148.973 C 342.863 138.087,352.982 126.981,364.000 129.379 M177.461 144.698 L 177.516 159.775 177.028 159.897 C 176.759 159.965,175.761 159.991,174.810 159.956 L 173.081 159.892 173.026 144.695 L 172.970 129.498 175.188 129.560 L 177.405 129.622 177.461 144.698 M358.354 132.205 C 354.227 133.369,350.962 137.473,350.647 141.892 L 350.559 143.135 360.931 143.135 L 371.302 143.135 371.190 141.784 C 370.652 135.315,364.254 130.541,358.354 132.205 M221.405 142.781 C 215.372 144.092,213.177 151.369,217.593 155.416 C 221.427 158.928,227.313 158.074,231.939 153.333 L 233.297 151.941 233.297 148.531 L 233.297 145.121 231.622 144.421 C 227.704 142.784,224.074 142.201,221.405 142.781 M298.811 142.796 C 295.069 143.631,293.006 146.167,292.954 149.996 C 292.846 158.093,302.379 160.211,309.123 153.587 L 310.919 151.823 310.919 148.564 L 310.919 145.305 309.892 144.786 C 306.386 143.017,301.640 142.165,298.811 142.796 M124.108 192.973 L 124.108 200.865 123.135 200.865 L 122.162 200.865 122.162 192.973 L 122.162 185.081 123.135 185.081 L 124.108 185.081 124.108 192.973 M138.595 188.108 C 138.595 191.081,138.692 191.475,139.256 190.795 C 140.596 189.181,144.314 189.236,145.971 190.893 C 147.066 191.988,147.241 192.847,147.242 197.135 L 147.243 200.865 146.270 200.865 L 145.297 200.865 145.297 196.851 C 145.297 194.301,145.209 192.664,145.054 192.364 C 143.948 190.216,141.549 189.981,139.548 191.825 L 138.595 192.704 138.595 196.784 L 138.595 200.865 137.730 200.865 L 136.865 200.865 136.865 192.973 L 136.865 185.081 137.730 185.081 L 138.595 185.081 138.595 188.108 M167.892 185.704 C 169.554 186.501,170.782 187.730,170.389 188.203 C 170.150 188.491,170.004 188.441,169.220 187.801 C 166.345 185.457,163.171 185.460,162.057 187.808 C 161.172 189.673,161.970 190.519,166.141 192.142 C 168.245 192.960,168.910 193.332,169.788 194.178 L 170.861 195.212 170.777 196.711 C 170.516 201.330,163.802 202.747,159.827 199.023 C 158.633 197.905,158.608 197.858,159.027 197.542 C 159.430 197.237,159.526 197.280,160.432 198.165 C 163.093 200.763,167.283 200.782,168.507 198.203 C 169.364 196.395,168.714 195.326,166.114 194.268 C 160.718 192.072,159.784 191.306,159.784 189.081 C 159.784 185.828,164.262 183.963,167.892 185.704 M220.541 192.973 L 220.541 200.865 219.568 200.865 L 218.595 200.865 218.595 192.973 L 218.595 185.081 219.568 185.081 L 220.541 185.081 220.541 192.973 M259.027 192.973 L 259.027 200.865 258.162 200.865 L 257.297 200.865 257.297 192.973 L 257.297 185.081 258.162 185.081 L 259.027 185.081 259.027 192.973 M376.912 192.595 C 376.959 196.727,377.075 200.278,377.171 200.486 C 377.322 200.817,377.218 200.865,376.347 200.865 L 375.351 200.865 375.351 200.097 L 375.351 199.329 374.649 199.855 C 369.133 203.984,362.578 196.688,367.143 191.502 C 368.928 189.474,372.105 188.990,374.154 190.435 L 375.135 191.126 375.135 188.104 L 375.135 185.081 375.981 185.081 L 376.827 185.081 376.912 192.595 M29.589 189.859 C 30.939 192.241,32.107 194.131,32.184 194.059 C 32.261 193.987,33.398 192.059,34.711 189.775 C 36.970 185.842,37.134 185.618,37.792 185.554 C 38.688 185.466,38.906 184.952,35.568 190.823 L 32.649 195.957 32.649 198.411 L 32.649 200.865 31.676 200.865 L 30.703 200.865 30.703 198.293 L 30.703 195.721 28.003 190.967 C 24.615 185.001,24.795 185.512,26.085 185.520 L 27.135 185.527 29.589 189.859 M83.027 188.973 L 83.027 192.432 87.243 192.432 L 91.459 192.432 91.459 188.973 L 91.459 185.514 92.432 185.514 L 93.405 185.514 93.405 193.189 L 93.405 200.865 92.432 200.865 L 91.459 200.865 91.459 197.189 L 91.459 193.514 87.243 193.514 L 83.027 193.514 83.027 197.189 L 83.027 200.865 82.054 200.865 L 81.081 200.865 81.081 193.189 L 81.081 185.514 82.054 185.514 L 83.027 185.514 83.027 188.973 M286.579 190.710 C 288.836 194.339,289.876 195.833,290.034 195.674 C 290.159 195.549,291.635 193.236,293.312 190.534 L 296.363 185.622 297.263 185.555 L 298.162 185.489 298.162 193.177 L 298.162 200.865 297.193 200.865 L 296.223 200.865 296.166 194.767 L 296.108 188.669 292.973 193.578 C 291.093 196.521,289.703 198.486,289.502 198.486 C 289.300 198.486,287.922 196.532,286.043 193.581 L 282.919 188.676 282.861 194.770 L 282.804 200.865 282.159 200.865 L 281.514 200.865 281.514 193.189 L 281.514 185.514 282.432 185.517 L 283.351 185.520 286.579 190.710 M130.162 188.216 L 130.162 189.838 131.908 189.838 C 134.466 189.838,134.402 190.561,131.835 190.658 L 130.162 190.721 130.162 194.394 C 130.162 198.561,130.342 199.314,131.478 199.901 C 132.300 200.327,133.551 200.071,134.297 199.324 C 135.002 198.619,135.554 199.215,134.872 199.945 C 133.195 201.740,129.886 201.355,128.774 199.235 C 128.377 198.479,128.316 197.927,128.257 194.541 L 128.189 190.703 127.121 190.703 C 126.198 190.703,126.054 190.644,126.054 190.270 C 126.054 189.892,126.198 189.838,127.211 189.838 L 128.368 189.838 128.755 188.378 C 129.231 186.587,129.227 186.595,129.742 186.595 C 130.121 186.595,130.162 186.755,130.162 188.216 M47.344 189.943 C 50.528 191.067,52.015 194.905,50.469 198.007 C 48.245 202.470,41.302 201.972,39.687 197.234 C 38.110 192.605,42.646 188.286,47.344 189.943 M73.866 190.108 C 73.794 190.376,73.734 190.676,73.733 190.776 C 73.731 190.875,73.347 190.892,72.879 190.813 C 71.881 190.645,70.306 191.246,69.351 192.160 L 68.757 192.730 68.757 196.797 L 68.757 200.865 67.892 200.865 L 67.027 200.865 67.022 196.162 C 67.019 193.576,66.932 191.095,66.828 190.649 L 66.640 189.838 67.581 189.838 C 68.488 189.838,68.526 189.865,68.666 190.609 L 68.810 191.381 69.378 190.851 C 70.759 189.563,74.163 188.999,73.866 190.108 M103.803 189.918 C 105.763 190.619,107.184 192.422,107.396 194.476 L 107.520 195.676 102.813 195.676 L 98.105 195.676 98.226 196.576 C 98.698 200.091,103.503 201.376,105.706 198.576 C 105.980 198.227,106.283 198.054,106.483 198.131 C 107.001 198.330,106.873 198.701,106.003 199.521 C 103.219 202.147,98.455 201.381,96.790 198.039 C 94.448 193.339,98.912 188.170,103.803 189.918 M116.658 190.028 C 118.710 190.960,119.080 192.004,119.174 197.135 L 119.243 200.865 118.456 200.865 C 117.644 200.865,117.405 200.611,117.405 199.747 C 117.405 199.345,117.354 199.357,116.703 199.905 C 113.758 202.388,108.973 200.812,108.973 197.359 C 108.973 194.446,112.622 192.818,116.147 194.157 C 117.508 194.674,117.471 194.704,117.174 193.323 C 116.574 190.524,113.922 189.700,111.303 191.498 C 110.222 192.240,109.525 192.041,110.292 191.209 C 111.654 189.730,114.740 189.157,116.658 190.028 M180.447 190.030 C 182.443 190.937,183.784 192.813,183.784 194.700 L 183.784 195.676 179.111 195.676 L 174.438 195.676 174.587 196.486 C 175.260 200.169,179.173 201.317,181.979 198.656 C 183.046 197.645,183.673 198.105,182.715 199.196 C 180.613 201.590,176.639 201.734,174.305 199.501 C 169.825 195.214,174.838 187.483,180.447 190.030 M193.201 190.158 C 195.148 191.136,195.332 191.635,195.470 196.313 C 195.536 198.524,195.663 200.453,195.753 200.599 C 195.874 200.794,195.662 200.865,194.959 200.865 C 194.058 200.865,193.992 200.824,193.865 200.190 C 193.734 199.535,193.715 199.525,193.243 199.865 C 190.064 202.153,185.718 200.993,185.354 197.758 C 185.003 194.642,188.760 192.747,192.484 194.162 C 193.110 194.400,193.646 194.594,193.676 194.594 C 193.817 194.595,193.703 193.584,193.476 192.826 C 192.782 190.507,190.135 189.878,187.786 191.472 C 186.450 192.378,185.822 191.798,187.091 190.830 C 188.866 189.476,191.307 189.208,193.201 190.158 M205.522 190.028 C 206.003 190.246,206.648 190.724,206.955 191.089 L 207.513 191.752 208.243 190.993 C 210.085 189.077,212.881 189.138,214.559 191.132 C 215.409 192.142,215.565 193.075,215.566 197.135 L 215.568 200.865 214.595 200.865 L 213.622 200.865 213.622 196.840 C 213.622 193.115,213.587 192.754,213.154 191.983 C 212.148 190.193,210.211 190.122,208.595 191.817 L 207.784 192.667 207.784 196.766 L 207.784 200.865 206.935 200.865 L 206.087 200.865 206.017 196.664 C 205.951 192.792,205.910 192.415,205.491 191.853 C 204.259 190.203,202.765 190.132,201.181 191.650 L 200.216 192.575 200.216 196.720 L 200.216 200.865 199.479 200.865 L 198.743 200.865 198.655 195.730 C 198.607 192.905,198.490 190.424,198.396 190.216 C 198.247 189.889,198.345 189.838,199.112 189.838 C 199.955 189.838,200.000 189.871,200.000 190.486 C 200.000 191.245,200.135 191.287,200.743 190.717 C 201.962 189.575,203.907 189.294,205.522 190.028 M230.825 190.030 C 232.822 190.937,234.162 192.813,234.162 194.700 L 234.162 195.676 229.489 195.676 L 224.817 195.676 224.965 196.486 C 225.638 200.169,229.552 201.317,232.358 198.656 C 233.424 197.645,234.051 198.105,233.094 199.196 C 230.992 201.590,227.018 201.734,224.684 199.501 C 220.203 195.214,225.216 187.483,230.825 190.030 M242.548 190.141 C 243.109 190.426,243.795 190.904,244.073 191.201 L 244.578 191.743 244.123 191.887 C 243.804 191.988,243.471 191.867,243.013 191.481 C 241.616 190.305,239.558 190.247,238.454 191.351 C 237.212 192.593,237.820 193.549,240.390 194.395 C 243.674 195.475,244.876 196.506,244.685 198.078 C 244.287 201.353,238.796 202.241,236.032 199.477 C 235.153 198.598,235.080 198.379,235.598 198.180 C 235.820 198.095,236.066 198.206,236.256 198.478 C 237.453 200.187,240.835 200.662,242.106 199.300 C 243.456 197.853,242.686 196.724,239.699 195.773 C 236.581 194.779,235.533 193.675,235.989 191.860 C 236.481 189.899,240.172 188.931,242.548 190.141 M252.482 189.953 C 253.423 190.346,254.703 191.287,254.703 191.585 C 254.703 192.053,254.036 192.008,253.362 191.495 C 251.219 189.863,248.216 190.487,248.216 192.564 C 248.216 193.420,248.611 193.692,251.152 194.587 C 254.278 195.689,254.906 196.245,254.914 197.917 C 254.929 201.203,249.483 202.265,246.418 199.574 C 245.980 199.189,245.622 198.744,245.622 198.585 C 245.622 197.995,246.111 198.024,246.775 198.654 C 249.176 200.931,252.973 200.488,252.973 197.932 C 252.973 197.037,252.357 196.572,250.270 195.893 C 247.167 194.882,246.270 194.125,246.270 192.515 C 246.270 190.277,249.787 188.827,252.482 189.953 M308.441 190.028 C 310.494 190.960,310.863 192.004,310.958 197.135 L 311.027 200.865 310.239 200.865 C 309.428 200.865,309.189 200.611,309.189 199.747 C 309.189 199.345,309.137 199.357,308.486 199.905 C 305.542 202.388,300.757 200.812,300.757 197.359 C 300.757 194.446,304.406 192.818,307.931 194.157 C 309.291 194.674,309.254 194.704,308.958 193.323 C 308.358 190.524,305.706 189.700,303.087 191.498 C 302.006 192.240,301.309 192.041,302.076 191.209 C 303.438 189.730,306.524 189.157,308.441 190.028 M322.076 190.139 C 324.092 191.078,324.206 191.406,324.283 196.486 L 324.349 200.865 323.472 200.865 L 322.595 200.865 322.590 197.027 C 322.584 192.401,322.356 191.614,320.818 190.916 C 319.599 190.363,319.218 190.380,317.881 191.046 C 315.914 192.026,315.892 192.089,315.892 196.786 L 315.892 200.865 315.047 200.865 L 314.202 200.865 314.115 195.730 C 314.067 192.905,313.950 190.424,313.855 190.216 C 313.705 189.886,313.810 189.838,314.680 189.838 C 315.642 189.838,315.676 189.860,315.676 190.486 C 315.676 191.239,315.853 191.288,316.565 190.734 C 318.193 189.469,320.176 189.255,322.076 190.139 M334.403 190.035 C 336.375 190.931,336.830 192.257,336.914 197.361 L 336.973 200.885 336.108 200.821 C 335.304 200.761,335.238 200.707,335.175 200.047 L 335.107 199.337 334.418 199.917 C 330.573 203.160,324.497 199.215,327.266 195.274 C 328.249 193.876,331.426 193.321,333.784 194.136 L 334.919 194.528 334.919 193.783 C 334.919 190.834,331.847 189.643,329.008 191.491 C 327.915 192.202,327.276 192.019,328.022 191.209 C 329.390 189.723,332.469 189.157,334.403 190.035 M346.731 189.974 C 347.140 190.168,347.762 190.596,348.115 190.926 L 348.757 191.525 348.757 191.023 C 348.757 190.089,348.979 189.838,349.807 189.838 L 350.595 189.838 350.539 193.351 C 350.405 201.809,350.393 201.997,349.904 202.919 C 348.156 206.213,343.366 206.909,340.783 204.243 C 340.153 203.593,340.122 203.501,340.444 203.234 C 340.747 202.982,340.828 202.992,341.002 203.303 C 341.305 203.844,342.902 204.695,343.922 204.859 C 346.574 205.285,348.525 203.466,348.536 200.557 L 348.541 199.276 348.051 199.736 C 344.889 202.707,339.180 199.816,339.180 195.243 C 339.180 191.360,343.419 188.402,346.731 189.974 M360.452 189.918 C 362.412 190.619,363.833 192.422,364.045 194.476 L 364.169 195.676 359.461 195.676 L 354.754 195.676 354.875 196.576 C 355.346 200.091,360.152 201.376,362.354 198.576 C 362.629 198.227,362.931 198.054,363.131 198.131 C 363.650 198.330,363.521 198.701,362.652 199.521 C 359.868 202.147,355.104 201.381,353.439 198.039 C 351.096 193.339,355.560 188.170,360.452 189.918 M55.136 193.351 C 55.138 197.185,55.302 198.138,56.132 199.125 C 57.294 200.505,59.240 200.460,60.930 199.013 L 61.838 198.237 61.838 194.037 L 61.838 189.838 62.811 189.838 L 63.784 189.838 63.784 194.676 C 63.784 197.336,63.846 199.824,63.922 200.203 L 64.060 200.893 63.111 200.825 C 62.213 200.760,62.159 200.719,62.094 200.047 L 62.026 199.337 61.337 199.917 C 58.874 201.995,54.678 201.178,53.635 198.418 C 53.503 198.069,53.405 196.114,53.405 193.824 L 53.405 189.838 54.270 189.838 L 55.135 189.838 55.136 193.351 M264.216 193.553 C 264.216 197.995,264.484 198.885,266.031 199.587 C 267.187 200.112,267.562 200.099,268.882 199.484 C 270.857 198.565,270.919 198.393,270.919 193.809 L 270.919 189.838 271.784 189.838 L 272.649 189.838 272.649 195.791 C 272.649 202.267,272.581 202.707,271.394 203.973 C 269.364 206.138,265.159 206.154,263.140 204.005 C 262.365 203.180,262.939 202.548,263.763 203.318 C 266.801 206.156,270.919 204.390,270.919 200.250 L 270.919 199.360 269.933 200.055 C 267.802 201.558,264.168 200.902,262.977 198.800 C 262.524 198.000,262.493 197.687,262.490 193.892 L 262.486 189.838 263.351 189.838 L 264.216 189.838 264.216 193.553 M44.000 190.810 C 40.302 192.112,40.535 198.980,44.312 199.997 C 46.894 200.692,49.133 198.529,49.134 195.336 C 49.136 191.988,46.715 189.854,44.000 190.810 M100.393 190.907 C 99.310 191.398,98.391 192.679,98.223 193.930 L 98.105 194.811 101.809 194.811 C 105.984 194.811,105.898 194.854,105.178 193.128 C 104.268 190.946,102.309 190.037,100.393 190.907 M177.212 190.704 C 175.965 191.091,174.504 193.035,174.491 194.324 C 174.486 194.810,174.493 194.811,178.162 194.811 L 181.838 194.811 181.838 194.230 C 181.838 192.049,179.246 190.074,177.212 190.704 M227.590 190.704 C 226.343 191.091,224.882 193.035,224.870 194.324 C 224.865 194.810,224.871 194.811,228.541 194.811 L 232.216 194.811 232.216 194.230 C 232.216 192.049,229.625 190.074,227.590 190.704 M343.914 190.711 C 341.620 191.398,340.345 195.120,341.577 197.534 C 342.903 200.134,345.451 200.665,347.633 198.797 L 348.541 198.020 348.541 195.301 L 348.541 192.582 347.678 191.761 C 346.507 190.647,345.275 190.304,343.914 190.711 M357.041 190.907 C 355.959 191.398,355.040 192.679,354.872 193.930 L 354.754 194.811 358.458 194.811 C 362.632 194.811,362.547 194.854,361.827 193.128 C 360.917 190.946,358.957 190.037,357.041 190.907 M370.270 190.810 C 367.876 191.653,366.853 195.277,368.245 197.984 C 369.489 200.400,372.086 200.847,374.228 199.013 L 375.135 198.237 375.135 195.472 C 375.135 192.246,374.964 191.871,373.098 191.002 C 371.837 190.415,371.465 190.389,370.270 190.810 M112.721 194.824 C 110.989 195.346,110.301 197.718,111.475 199.115 C 113.287 201.268,117.513 199.608,117.361 196.802 L 117.297 195.623 116.310 195.236 C 115.023 194.732,113.577 194.566,112.721 194.824 M188.980 194.877 C 187.452 195.404,186.787 197.411,187.665 198.851 C 189.252 201.455,193.866 199.812,193.687 196.707 L 193.622 195.568 192.216 195.089 C 190.625 194.547,190.049 194.509,188.980 194.877 M304.504 194.824 C 302.773 195.346,302.084 197.718,303.259 199.115 C 305.071 201.268,309.297 199.608,309.145 196.802 L 309.081 195.623 308.094 195.236 C 306.807 194.732,305.361 194.566,304.504 194.824 M330.378 194.827 C 327.027 196.230,328.746 200.963,332.264 200.016 C 333.940 199.565,334.919 198.432,334.919 196.944 L 334.919 195.651 334.000 195.245 C 332.843 194.734,331.085 194.531,330.378 194.827 M151.741 199.178 C 152.580 200.018,151.668 202.495,150.237 203.261 C 149.554 203.627,149.482 202.892,150.137 202.236 C 150.705 201.668,150.885 201.081,150.491 201.081 C 150.375 201.081,150.121 200.838,149.926 200.541 C 149.240 199.493,150.848 198.285,151.741 199.178 "
          stroke="none"
          fill="none"
          fill-rule="evenodd"></path>
    <path id="path1"
          d="M157.838 22.813 C 139.081 25.284,121.118 36.895,108.813 54.503 C 105.756 58.877,101.845 63.865,101.203 64.209 C 100.102 64.798,97.268 61.934,93.401 56.324 C 83.972 42.647,72.955 34.803,61.059 33.294 C 46.263 31.419,41.171 34.311,36.928 47.002 C 31.958 61.867,35.663 75.033,51.661 99.351 C 57.219 107.799,59.569 111.649,59.366 111.976 C 58.962 112.630,55.740 113.049,49.189 113.300 C 37.383 113.752,30.054 114.700,30.054 115.776 C 30.054 116.771,37.877 117.361,52.000 117.430 C 55.568 117.448,59.560 117.522,60.872 117.596 L 63.257 117.730 70.709 125.522 C 88.829 144.466,95.833 152.279,101.660 160.048 L 104.372 163.664 114.953 151.832 C 120.772 145.324,130.900 133.914,137.459 126.475 L 149.385 112.950 164.801 112.682 C 173.279 112.535,184.328 112.354,189.353 112.280 C 194.378 112.207,198.462 112.120,198.430 112.088 C 198.398 112.055,194.578 111.925,189.942 111.798 C 167.317 111.180,153.514 110.236,153.514 109.307 C 153.514 108.742,159.813 99.080,168.321 86.595 C 186.774 59.516,190.943 46.339,184.992 33.897 C 181.706 27.026,179.295 25.526,167.361 22.931 C 164.998 22.417,161.204 22.370,157.838 22.813 M167.981 26.493 C 172.546 27.366,176.276 29.356,180.029 32.921 C 182.886 35.634,183.534 37.855,183.131 43.541 C 182.074 58.440,178.364 66.475,162.326 88.597 C 149.047 106.912,137.865 115.561,132.711 111.499 C 131.357 110.433,131.331 98.526,132.650 83.784 C 136.190 44.223,133.761 43.004,121.877 78.378 C 113.713 102.678,112.748 103.519,109.290 89.353 C 108.528 86.232,107.754 83.389,107.571 83.035 C 105.856 79.717,103.737 85.252,98.912 105.646 C 97.875 110.033,96.963 113.740,96.887 113.884 C 96.811 114.028,94.864 110.136,92.562 105.235 C 85.569 90.354,82.017 84.108,80.545 84.108 C 79.536 84.108,78.055 90.265,77.087 98.486 C 75.408 112.744,74.399 115.044,70.354 113.843 C 66.718 112.763,60.366 105.554,51.953 92.958 C 42.794 79.247,40.121 72.949,39.335 63.232 C 37.498 40.495,49.909 29.408,67.760 37.842 C 72.416 40.043,82.149 49.369,89.658 58.827 C 93.839 64.093,96.175 67.692,99.155 73.456 C 100.214 75.506,101.130 77.182,101.189 77.181 C 101.249 77.180,102.903 74.051,104.865 70.226 C 109.206 61.766,110.569 59.360,112.958 55.940 C 123.774 40.460,141.606 28.463,156.865 26.399 C 157.816 26.270,158.886 26.123,159.243 26.072 C 160.560 25.884,166.218 26.156,167.981 26.493 M127.936 79.514 C 128.225 80.877,128.047 89.532,127.565 97.572 C 126.571 114.128,126.762 114.943,131.715 115.258 C 135.797 115.518,137.802 116.365,137.395 117.657 C 136.284 121.187,107.445 154.378,105.489 154.378 C 102.928 154.378,74.130 123.996,73.208 120.322 C 72.934 119.229,74.618 117.622,76.039 117.622 C 78.937 117.622,79.712 115.933,80.006 108.973 C 80.282 102.437,81.040 98.530,82.093 98.213 C 83.033 97.930,85.781 101.824,89.304 108.432 C 94.776 118.696,97.435 122.567,98.591 121.948 C 99.730 121.339,101.102 117.212,102.155 111.235 C 104.300 99.056,106.964 96.704,108.867 105.309 C 109.741 109.259,111.213 113.203,112.082 113.924 C 113.165 114.823,115.540 109.820,120.180 96.865 C 126.332 79.691,127.445 77.200,127.936 79.514 "
          stroke="none"
          fill="#ffffff"
          fill-rule="evenodd"></path>
    <path id="path2"
          d="M174.404 116.764 C 171.078 117.760,171.570 122.800,175.032 123.190 C 178.609 123.594,179.892 118.687,176.644 117.027 C 175.623 116.505,175.369 116.475,174.404 116.764 M264.108 116.867 C 249.014 119.048,240.980 134.976,248.024 148.757 C 254.808 162.029,274.191 164.096,283.520 152.541 L 284.567 151.243 283.772 150.550 L 282.977 149.857 281.218 151.641 C 267.438 165.614,246.871 153.405,250.938 133.667 C 253.980 118.904,270.852 114.236,280.707 125.431 C 281.969 126.865,282.042 126.890,282.865 126.166 C 283.726 125.408,283.646 125.209,281.676 123.190 C 276.747 118.140,270.603 115.929,264.108 116.867 M192.485 120.703 C 192.366 120.851,192.110 121.605,191.916 122.378 C 191.569 123.759,190.774 126.791,190.288 128.589 L 190.041 129.502 186.966 129.562 L 183.892 129.622 183.827 130.859 L 183.763 132.096 186.746 132.156 L 189.730 132.216 189.845 142.270 C 189.931 149.806,190.032 152.541,190.248 153.189 C 192.656 160.424,201.605 162.552,206.873 157.143 C 208.294 155.684,208.331 155.571,207.562 155.023 L 206.903 154.554 205.922 155.459 C 202.773 158.361,198.252 158.289,195.972 155.300 C 194.286 153.089,194.282 153.061,194.206 142.000 L 194.138 132.108 198.665 132.108 L 203.192 132.108 203.434 131.147 C 203.878 129.384,204.236 129.514,198.919 129.514 L 194.162 129.514 194.162 125.232 C 194.162 122.191,194.087 120.876,193.903 120.692 C 193.564 120.353,192.760 120.359,192.485 120.703 M221.189 129.630 C 218.324 130.425,213.514 133.538,213.514 134.597 C 213.514 135.596,214.568 135.716,215.595 134.835 C 222.919 128.543,233.514 132.203,233.514 141.024 C 233.514 142.778,233.498 142.789,232.031 142.123 C 226.438 139.584,221.422 139.246,216.856 141.102 C 208.695 144.418,208.335 154.852,216.252 158.591 C 222.057 161.332,227.293 160.548,231.927 156.242 C 233.804 154.498,233.729 154.473,233.968 156.909 C 234.276 160.042,234.042 159.784,236.570 159.784 C 238.730 159.784,238.752 159.779,238.616 159.297 C 238.050 157.285,237.845 154.032,237.838 146.919 C 237.827 136.154,236.765 133.141,232.145 130.772 C 229.543 129.438,223.972 128.857,221.189 129.630 M298.631 129.636 C 296.316 130.259,293.754 131.751,291.838 133.592 C 290.629 134.753,290.616 134.807,291.452 135.240 C 292.079 135.564,292.121 135.551,293.236 134.700 C 299.599 129.846,307.899 131.075,310.281 137.223 C 310.726 138.372,311.188 142.703,310.866 142.703 C 310.809 142.703,310.141 142.423,309.381 142.082 C 298.265 137.087,287.580 141.361,288.035 150.620 C 288.512 160.295,303.958 163.619,310.277 155.405 C 311.024 154.434,311.348 154.626,311.372 156.054 C 311.384 156.738,311.505 157.832,311.642 158.486 L 311.892 159.676 314.030 159.738 L 316.167 159.800 316.020 158.981 C 315.543 156.334,315.468 154.896,315.464 148.427 C 315.457 137.614,315.011 135.572,311.996 132.557 C 309.283 129.844,302.978 128.466,298.631 129.636 M336.866 129.457 C 335.110 129.784,332.270 131.515,330.275 133.472 L 328.981 134.743 328.689 132.400 C 328.322 129.450,328.380 129.514,326.040 129.514 C 323.742 129.514,323.862 129.329,324.346 132.108 C 324.698 134.130,324.742 135.770,324.749 147.081 L 324.757 159.784 326.919 159.784 L 329.081 159.784 329.081 148.687 L 329.081 137.590 330.267 136.375 C 333.604 132.958,338.234 131.314,341.387 132.426 C 342.079 132.670,342.309 132.683,342.378 132.480 C 342.996 130.643,343.163 129.664,342.888 129.490 C 342.589 129.300,337.845 129.274,336.866 129.457 M357.946 129.514 C 347.119 131.554,342.118 144.830,348.742 153.946 C 354.515 161.890,367.045 162.216,373.394 154.587 C 374.597 153.142,374.626 152.988,373.813 152.381 L 373.275 151.980 371.556 153.666 C 364.142 160.939,352.443 157.711,350.691 147.909 C 350.261 145.502,348.911 145.741,363.290 145.677 L 375.892 145.622 375.877 143.135 C 375.824 134.404,367.114 127.788,357.946 129.514 M172.973 144.649 L 172.973 159.784 175.135 159.784 L 177.297 159.784 177.297 144.649 L 177.297 129.514 175.135 129.514 L 172.973 129.514 172.973 144.649 M362.854 131.916 C 367.300 132.846,371.201 137.524,371.323 142.071 L 371.351 143.141 360.973 143.146 L 350.595 143.151 350.527 142.378 C 350.010 136.470,356.857 130.660,362.854 131.916 M227.681 143.009 C 229.905 143.576,230.392 143.743,232.270 144.584 L 233.514 145.140 233.514 148.412 L 233.514 151.684 232.637 152.745 C 226.347 160.356,215.191 158.632,215.258 150.058 C 215.303 144.141,220.517 141.182,227.681 143.009 M305.144 143.010 C 306.280 143.298,308.020 143.862,309.010 144.263 L 310.811 144.992 310.870 148.495 L 310.930 151.997 309.179 153.726 C 302.442 160.383,292.865 158.227,292.865 150.054 C 292.865 144.053,297.890 141.170,305.144 143.010 "
          stroke="#08b2d9"
          stroke-width="1"
          fill="#08b2d9"
          fill-rule="evenodd"></path>
  </g>
  <text x='1'
        y='203'
        font-family='Arial'
        font-size="26px"
        fill="#2acb90"
        color="#2acb90">
    Your Health Seamlessly Managed
  </text>
</svg>