<svg id="svg"
     version="1.1"
     xmlns="http://www.w3.org/2000/svg"
     xmlns:xlink="http://www.w3.org/1999/xlink"
     width="400"
     height="400"
     viewBox="0, 0, 400,400">
  <g id="svgg">
    <path id="path0"
          d="M272.430 76.586 C 244.975 80.863,211.122 101.274,194.445 123.605 C 171.632 154.154,173.993 151.974,169.197 146.914 C 167.524 145.148,163.354 139.704,159.932 134.815 C 141.539 108.541,120.999 95.819,94.301 94.167 C 73.046 92.852,63.207 100.791,57.256 124.059 C 50.783 149.369,57.842 172.774,84.184 213.333 C 99.938 237.590,98.921 235.837,97.686 236.600 C 97.104 236.960,89.887 237.631,81.647 238.092 C 54.648 239.603,46.420 240.838,46.420 243.380 C 46.420 245.595,50.747 246.026,78.773 246.603 L 105.695 247.157 127.778 270.492 C 155.901 300.208,161.424 306.368,171.035 318.743 C 175.350 324.298,179.250 329.072,179.701 329.350 C 180.424 329.797,204.826 302.819,247.202 254.722 L 260.772 239.321 277.210 238.673 C 286.251 238.316,303.467 237.970,315.466 237.904 C 353.854 237.691,362.611 236.660,333.827 235.743 C 306.627 234.876,278.210 233.268,272.313 232.261 L 268.392 231.592 288.544 201.475 C 330.899 138.176,337.001 119.680,324.014 93.952 C 319.198 84.413,314.681 81.513,298.272 77.423 C 287.712 74.792,284.597 74.691,272.430 76.586 M295.625 84.440 C 320.165 90.832,326.350 107.386,315.921 138.765 C 306.839 166.093,266.180 221.425,246.841 232.775 C 229.200 243.129,226.988 235.904,231.668 183.210 C 237.778 114.420,232.089 112.966,210.187 177.721 C 196.983 216.760,194.831 218.645,189.575 195.773 C 184.525 173.800,181.442 177.278,171.822 215.802 C 166.841 235.753,166.023 238.197,165.103 235.877 C 161.200 226.029,143.802 192.372,140.942 189.136 C 135.594 183.084,133.627 187.549,130.370 213.132 C 127.292 237.310,125.635 241.198,119.301 239.108 C 106.470 234.873,69.935 181.121,65.618 160.128 C 56.317 114.893,81.137 86.952,114.720 104.852 C 129.737 112.856,156.416 142.888,168.868 165.805 C 174.601 176.356,173.931 176.682,183.294 158.798 C 210.481 106.868,258.838 74.858,295.625 84.440 M221.868 192.840 C 219.399 245.679,218.905 242.459,229.587 243.139 C 239.915 243.797,240.194 244.848,232.691 254.835 C 217.551 274.986,184.793 311.111,181.659 311.111 C 178.098 311.111,142.150 274.290,129.031 257.205 L 123.998 250.651 126.306 248.782 C 127.575 247.754,129.666 246.914,130.951 246.914 C 135.015 246.914,136.304 243.343,137.242 229.491 C 138.763 207.039,139.829 207.488,156.222 237.490 C 169.186 261.215,171.531 260.933,176.799 235.018 C 181.628 211.261,183.209 210.837,189.513 231.605 C 193.980 246.319,196.885 243.667,206.823 215.802 C 215.748 190.779,220.513 178.765,221.513 178.765 C 222.188 178.765,222.307 183.454,221.868 192.840 "
          stroke="none"
          fill="#000000"
          fill-rule="evenodd"></path>
  </g>
</svg>