<svg id="svg"
     version="1.1"
     xmlns="http://www.w3.org/2000/svg"
     xmlns:xlink="http://www.w3.org/1999/xlink"
     width="400"
     height="245"
     viewBox="0, 0, 400,245.83783783783784">
  <g id="svgg">
    <path id="path0"
          d="M0.000 122.919 L 0.000 245.838 200.000 245.838 L 400.000 245.838 400.000 122.919 L 400.000 0.000 200.000 0.000 L 0.000 0.000 0.000 122.919 M167.496 22.822 C 178.877 25.277,181.512 26.814,184.589 32.795 C 191.390 46.015,187.285 59.283,167.467 88.131 C 159.115 100.289,153.511 109.057,153.865 109.411 C 154.619 110.165,169.214 111.064,190.801 111.686 C 197.098 111.868,202.284 112.050,202.325 112.091 C 202.366 112.132,198.965 112.230,194.767 112.308 C 176.271 112.654,151.997 113.081,150.793 113.081 L 149.478 113.081 139.772 124.054 C 134.434 130.089,124.287 141.516,117.223 149.448 L 104.381 163.869 101.562 160.151 C 95.762 152.498,87.927 143.659,74.815 129.972 C 72.137 127.176,68.389 123.260,66.486 121.269 L 63.027 117.649 57.297 117.627 C 38.648 117.555,29.838 116.959,29.838 115.767 C 29.838 114.676,35.964 113.770,46.486 113.304 C 55.410 112.909,58.970 112.509,59.177 111.880 C 59.300 111.504,55.951 106.069,50.993 98.595 C 35.733 75.591,31.943 61.980,36.695 47.244 C 40.719 34.766,45.817 31.538,59.246 32.963 C 72.552 34.376,83.834 41.999,93.389 56.035 C 96.485 60.582,99.771 64.216,100.787 64.216 C 101.375 64.216,105.324 59.303,108.868 54.162 C 112.204 49.324,113.489 47.770,117.278 43.991 C 132.402 28.909,153.833 19.875,167.496 22.822 M157.514 26.408 C 143.727 28.146,126.840 38.566,116.186 51.907 C 112.046 57.091,110.589 59.497,104.635 70.973 C 102.799 74.511,101.249 77.405,101.189 77.404 C 101.130 77.403,100.011 75.388,98.703 72.924 C 92.609 61.448,81.636 48.295,71.706 40.563 C 63.926 34.506,53.285 33.530,46.970 38.295 C 38.257 44.869,36.564 64.714,43.543 78.486 C 50.494 92.207,64.087 110.639,69.058 113.086 C 74.033 115.535,75.228 113.384,76.868 99.027 C 77.724 91.527,79.016 85.638,80.075 84.407 L 80.568 83.834 81.405 84.566 C 83.497 86.394,86.477 91.875,93.086 106.054 C 95.082 110.335,96.726 113.855,96.739 113.877 C 96.752 113.898,97.522 110.736,98.451 106.850 C 104.855 80.039,106.461 77.100,108.982 87.584 C 112.830 103.586,113.402 103.130,122.169 77.081 C 129.501 55.297,132.481 49.455,133.884 54.118 C 134.246 55.323,134.241 65.693,133.875 70.378 C 133.726 72.281,133.319 77.341,132.971 81.622 C 131.646 97.897,131.401 107.629,132.241 110.655 C 132.655 112.147,135.906 112.724,138.500 111.767 C 145.946 109.017,155.123 99.190,168.468 79.676 C 179.388 63.708,182.933 54.376,183.006 41.405 L 183.027 37.730 182.313 36.216 C 179.059 29.315,168.276 25.051,157.514 26.408 M126.193 81.385 C 124.977 84.084,123.688 87.512,119.539 99.084 C 115.926 109.164,113.578 114.162,112.456 114.162 C 111.496 114.162,110.185 111.194,108.969 106.270 C 106.727 97.191,104.483 98.738,102.379 110.811 C 101.401 116.420,100.144 120.615,99.092 121.778 C 97.738 123.274,95.561 120.384,89.332 108.819 C 84.833 100.467,82.662 97.541,81.785 98.649 C 81.002 99.636,80.216 104.353,80.216 108.058 C 80.216 114.583,79.134 117.618,76.803 117.624 C 74.703 117.629,72.928 119.235,73.498 120.612 C 75.312 124.992,102.972 154.146,105.326 154.160 C 107.520 154.173,137.317 119.954,137.294 117.447 C 137.284 116.318,135.682 115.703,132.043 115.431 C 126.734 115.033,126.457 114.319,127.137 102.811 C 128.040 87.538,128.205 79.470,127.628 78.893 C 127.485 78.750,127.003 79.586,126.193 81.385 M176.882 116.982 C 179.251 118.191,179.233 121.695,176.850 122.927 C 174.036 124.382,170.953 121.367,172.358 118.535 C 173.290 116.657,175.057 116.050,176.882 116.982 M270.659 116.856 C 273.196 117.389,275.481 118.363,278.270 120.099 C 279.419 120.815,283.678 125.028,283.671 125.443 C 283.669 125.601,283.265 126.014,282.773 126.362 L 281.880 126.994 281.427 126.466 C 281.177 126.175,280.778 125.696,280.541 125.401 C 276.787 120.742,268.254 118.147,262.595 119.942 C 250.260 123.856,246.412 142.267,255.789 152.507 C 262.331 159.652,274.306 159.057,281.477 151.231 C 282.942 149.632,282.892 149.647,283.887 150.498 C 284.789 151.269,284.734 151.412,282.714 153.524 C 270.533 166.261,249.340 160.083,245.734 142.743 C 242.648 127.900,256.209 113.816,270.659 116.856 M194.255 120.795 C 194.332 120.995,194.383 123.014,194.368 125.282 L 194.342 129.405 199.117 129.464 C 201.743 129.496,203.890 129.593,203.888 129.680 C 203.885 129.767,203.758 130.324,203.604 130.919 L 203.324 132.000 198.842 132.108 L 194.360 132.216 194.374 141.759 C 194.388 152.042,194.434 152.531,195.574 154.505 C 197.671 158.134,202.406 158.540,205.784 155.380 L 206.826 154.406 207.521 154.846 C 208.495 155.462,208.405 155.798,206.861 157.304 C 202.102 161.947,193.883 160.878,191.028 155.245 C 189.754 152.730,189.772 152.903,189.638 142.162 L 189.514 132.216 186.530 132.156 L 183.546 132.096 183.611 130.859 L 183.676 129.622 186.793 129.514 C 189.892 129.406,189.912 129.402,190.073 128.865 C 190.162 128.568,190.636 126.768,191.127 124.865 C 192.309 120.287,192.239 120.432,193.270 120.432 C 193.862 120.432,194.158 120.541,194.255 120.795 M229.297 129.601 C 235.362 131.256,237.822 134.970,237.972 142.703 C 238.015 144.903,238.096 149.086,238.153 152.000 C 238.223 155.545,238.359 157.704,238.565 158.526 C 238.935 160.002,238.936 160.001,236.685 159.997 C 234.091 159.992,233.895 159.714,233.673 155.730 L 233.622 154.811 232.055 156.314 C 223.546 164.471,208.309 158.673,210.568 148.138 C 212.211 140.476,222.221 137.507,231.730 141.863 C 232.479 142.206,233.151 142.486,233.224 142.486 C 233.671 142.486,233.107 138.190,232.480 136.817 C 229.883 131.129,221.398 130.166,215.702 134.912 L 214.647 135.791 213.976 135.366 C 213.006 134.752,213.025 134.694,214.693 133.120 C 218.378 129.644,224.259 128.227,229.297 129.601 M305.838 129.410 C 310.442 130.285,313.894 133.360,315.073 137.638 C 315.211 138.136,315.369 142.191,315.457 147.459 C 315.576 154.640,315.678 156.749,315.966 158.019 C 316.421 160.022,316.440 160.000,314.243 160.000 C 311.668 160.000,311.687 160.017,311.353 157.307 C 311.034 154.726,311.044 154.736,310.015 155.838 C 301.952 164.476,286.235 159.272,287.981 148.541 C 289.275 140.591,299.859 137.361,309.500 141.976 C 310.914 142.653,310.919 142.651,310.919 141.420 C 310.919 132.313,300.987 128.697,293.116 134.939 C 292.087 135.756,292.061 135.763,291.495 135.403 C 290.574 134.818,290.565 134.643,291.414 133.764 C 293.349 131.758,296.282 130.136,299.459 129.316 C 300.666 129.004,303.957 129.052,305.838 129.410 M342.459 129.216 C 343.217 129.368,343.261 129.557,342.912 131.179 C 342.552 132.853,342.551 132.854,340.782 132.424 C 337.481 131.621,332.292 133.775,329.867 136.954 L 329.297 137.701 329.297 148.738 L 329.297 159.776 328.810 159.898 C 328.542 159.965,327.545 159.991,326.594 159.956 L 324.865 159.892 324.732 147.135 C 324.654 139.684,324.501 133.749,324.362 132.865 C 324.232 132.032,324.060 130.938,323.980 130.432 L 323.835 129.514 326.090 129.514 L 328.346 129.514 328.605 130.770 C 328.748 131.461,328.865 132.531,328.865 133.148 C 328.865 134.542,329.040 134.548,330.388 133.200 C 333.678 129.910,338.301 128.385,342.459 129.216 M364.000 129.379 C 371.009 130.904,376.176 136.892,376.209 143.528 C 376.222 146.217,377.688 145.946,363.141 145.946 L 350.514 145.946 350.621 146.757 C 351.801 155.698,359.994 160.036,368.116 156.020 C 369.966 155.105,370.495 154.674,372.937 152.085 C 373.224 151.780,374.218 152.256,374.607 152.884 C 374.767 153.144,373.101 155.211,371.832 156.326 C 363.166 163.939,349.482 160.022,346.148 148.973 C 342.863 138.087,352.982 126.981,364.000 129.379 M177.461 144.698 L 177.516 159.775 177.028 159.897 C 176.759 159.965,175.761 159.991,174.810 159.956 L 173.081 159.892 173.026 144.695 L 172.970 129.498 175.188 129.560 L 177.405 129.622 177.461 144.698 M358.354 132.205 C 354.227 133.369,350.962 137.473,350.647 141.892 L 350.559 143.135 360.931 143.135 L 371.302 143.135 371.190 141.784 C 370.652 135.315,364.254 130.541,358.354 132.205 M221.405 142.781 C 215.372 144.092,213.177 151.369,217.593 155.416 C 221.427 158.928,227.313 158.074,231.939 153.333 L 233.297 151.941 233.297 148.531 L 233.297 145.121 231.622 144.421 C 227.704 142.784,224.074 142.201,221.405 142.781 M298.811 142.796 C 295.069 143.631,293.006 146.167,292.954 149.996 C 292.846 158.093,302.379 160.211,309.123 153.587 L 310.919 151.823 310.919 148.564 L 310.919 145.305 309.892 144.786 C 306.386 143.017,301.640 142.165,298.811 142.796 M124.108 192.973 L 124.108 200.865 123.135 200.865 L 122.162 200.865 122.162 192.973 L 122.162 185.081 123.135 185.081 L 124.108 185.081 124.108 192.973 M138.595 188.108 C 138.595 191.081,138.692 191.475,139.256 190.795 C 140.596 189.181,144.314 189.236,145.971 190.893 C 147.066 191.988,147.241 192.847,147.242 197.135 L 147.243 200.865 146.270 200.865 L 145.297 200.865 145.297 196.851 C 145.297 194.301,145.209 192.664,145.054 192.364 C 143.948 190.216,141.549 189.981,139.548 191.825 L 138.595 192.704 138.595 196.784 L 138.595 200.865 137.730 200.865 L 136.865 200.865 136.865 192.973 L 136.865 185.081 137.730 185.081 L 138.595 185.081 138.595 188.108 M167.892 185.704 C 169.554 186.501,170.782 187.730,170.389 188.203 C 170.150 188.491,170.004 188.441,169.220 187.801 C 166.345 185.457,163.171 185.460,162.057 187.808 C 161.172 189.673,161.970 190.519,166.141 192.142 C 168.245 192.960,168.910 193.332,169.788 194.178 L 170.861 195.212 170.777 196.711 C 170.516 201.330,163.802 202.747,159.827 199.023 C 158.633 197.905,158.608 197.858,159.027 197.542 C 159.430 197.237,159.526 197.280,160.432 198.165 C 163.093 200.763,167.283 200.782,168.507 198.203 C 169.364 196.395,168.714 195.326,166.114 194.268 C 160.718 192.072,159.784 191.306,159.784 189.081 C 159.784 185.828,164.262 183.963,167.892 185.704 M220.541 192.973 L 220.541 200.865 219.568 200.865 L 218.595 200.865 218.595 192.973 L 218.595 185.081 219.568 185.081 L 220.541 185.081 220.541 192.973 M259.027 192.973 L 259.027 200.865 258.162 200.865 L 257.297 200.865 257.297 192.973 L 257.297 185.081 258.162 185.081 L 259.027 185.081 259.027 192.973 M376.912 192.595 C 376.959 196.727,377.075 200.278,377.171 200.486 C 377.322 200.817,377.218 200.865,376.347 200.865 L 375.351 200.865 375.351 200.097 L 375.351 199.329 374.649 199.855 C 369.133 203.984,362.578 196.688,367.143 191.502 C 368.928 189.474,372.105 188.990,374.154 190.435 L 375.135 191.126 375.135 188.104 L 375.135 185.081 375.981 185.081 L 376.827 185.081 376.912 192.595 M29.589 189.859 C 30.939 192.241,32.107 194.131,32.184 194.059 C 32.261 193.987,33.398 192.059,34.711 189.775 C 36.970 185.842,37.134 185.618,37.792 185.554 C 38.688 185.466,38.906 184.952,35.568 190.823 L 32.649 195.957 32.649 198.411 L 32.649 200.865 31.676 200.865 L 30.703 200.865 30.703 198.293 L 30.703 195.721 28.003 190.967 C 24.615 185.001,24.795 185.512,26.085 185.520 L 27.135 185.527 29.589 189.859 M83.027 188.973 L 83.027 192.432 87.243 192.432 L 91.459 192.432 91.459 188.973 L 91.459 185.514 92.432 185.514 L 93.405 185.514 93.405 193.189 L 93.405 200.865 92.432 200.865 L 91.459 200.865 91.459 197.189 L 91.459 193.514 87.243 193.514 L 83.027 193.514 83.027 197.189 L 83.027 200.865 82.054 200.865 L 81.081 200.865 81.081 193.189 L 81.081 185.514 82.054 185.514 L 83.027 185.514 83.027 188.973 M286.579 190.710 C 288.836 194.339,289.876 195.833,290.034 195.674 C 290.159 195.549,291.635 193.236,293.312 190.534 L 296.363 185.622 297.263 185.555 L 298.162 185.489 298.162 193.177 L 298.162 200.865 297.193 200.865 L 296.223 200.865 296.166 194.767 L 296.108 188.669 292.973 193.578 C 291.093 196.521,289.703 198.486,289.502 198.486 C 289.300 198.486,287.922 196.532,286.043 193.581 L 282.919 188.676 282.861 194.770 L 282.804 200.865 282.159 200.865 L 281.514 200.865 281.514 193.189 L 281.514 185.514 282.432 185.517 L 283.351 185.520 286.579 190.710 M130.162 188.216 L 130.162 189.838 131.908 189.838 C 134.466 189.838,134.402 190.561,131.835 190.658 L 130.162 190.721 130.162 194.394 C 130.162 198.561,130.342 199.314,131.478 199.901 C 132.300 200.327,133.551 200.071,134.297 199.324 C 135.002 198.619,135.554 199.215,134.872 199.945 C 133.195 201.740,129.886 201.355,128.774 199.235 C 128.377 198.479,128.316 197.927,128.257 194.541 L 128.189 190.703 127.121 190.703 C 126.198 190.703,126.054 190.644,126.054 190.270 C 126.054 189.892,126.198 189.838,127.211 189.838 L 128.368 189.838 128.755 188.378 C 129.231 186.587,129.227 186.595,129.742 186.595 C 130.121 186.595,130.162 186.755,130.162 188.216 M47.344 189.943 C 50.528 191.067,52.015 194.905,50.469 198.007 C 48.245 202.470,41.302 201.972,39.687 197.234 C 38.110 192.605,42.646 188.286,47.344 189.943 M73.866 190.108 C 73.794 190.376,73.734 190.676,73.733 190.776 C 73.731 190.875,73.347 190.892,72.879 190.813 C 71.881 190.645,70.306 191.246,69.351 192.160 L 68.757 192.730 68.757 196.797 L 68.757 200.865 67.892 200.865 L 67.027 200.865 67.022 196.162 C 67.019 193.576,66.932 191.095,66.828 190.649 L 66.640 189.838 67.581 189.838 C 68.488 189.838,68.526 189.865,68.666 190.609 L 68.810 191.381 69.378 190.851 C 70.759 189.563,74.163 188.999,73.866 190.108 M103.803 189.918 C 105.763 190.619,107.184 192.422,107.396 194.476 L 107.520 195.676 102.813 195.676 L 98.105 195.676 98.226 196.576 C 98.698 200.091,103.503 201.376,105.706 198.576 C 105.980 198.227,106.283 198.054,106.483 198.131 C 107.001 198.330,106.873 198.701,106.003 199.521 C 103.219 202.147,98.455 201.381,96.790 198.039 C 94.448 193.339,98.912 188.170,103.803 189.918 M116.658 190.028 C 118.710 190.960,119.080 192.004,119.174 197.135 L 119.243 200.865 118.456 200.865 C 117.644 200.865,117.405 200.611,117.405 199.747 C 117.405 199.345,117.354 199.357,116.703 199.905 C 113.758 202.388,108.973 200.812,108.973 197.359 C 108.973 194.446,112.622 192.818,116.147 194.157 C 117.508 194.674,117.471 194.704,117.174 193.323 C 116.574 190.524,113.922 189.700,111.303 191.498 C 110.222 192.240,109.525 192.041,110.292 191.209 C 111.654 189.730,114.740 189.157,116.658 190.028 M180.447 190.030 C 182.443 190.937,183.784 192.813,183.784 194.700 L 183.784 195.676 179.111 195.676 L 174.438 195.676 174.587 196.486 C 175.260 200.169,179.173 201.317,181.979 198.656 C 183.046 197.645,183.673 198.105,182.715 199.196 C 180.613 201.590,176.639 201.734,174.305 199.501 C 169.825 195.214,174.838 187.483,180.447 190.030 M193.201 190.158 C 195.148 191.136,195.332 191.635,195.470 196.313 C 195.536 198.524,195.663 200.453,195.753 200.599 C 195.874 200.794,195.662 200.865,194.959 200.865 C 194.058 200.865,193.992 200.824,193.865 200.190 C 193.734 199.535,193.715 199.525,193.243 199.865 C 190.064 202.153,185.718 200.993,185.354 197.758 C 185.003 194.642,188.760 192.747,192.484 194.162 C 193.110 194.400,193.646 194.594,193.676 194.594 C 193.817 194.595,193.703 193.584,193.476 192.826 C 192.782 190.507,190.135 189.878,187.786 191.472 C 186.450 192.378,185.822 191.798,187.091 190.830 C 188.866 189.476,191.307 189.208,193.201 190.158 M205.522 190.028 C 206.003 190.246,206.648 190.724,206.955 191.089 L 207.513 191.752 208.243 190.993 C 210.085 189.077,212.881 189.138,214.559 191.132 C 215.409 192.142,215.565 193.075,215.566 197.135 L 215.568 200.865 214.595 200.865 L 213.622 200.865 213.622 196.840 C 213.622 193.115,213.587 192.754,213.154 191.983 C 212.148 190.193,210.211 190.122,208.595 191.817 L 207.784 192.667 207.784 196.766 L 207.784 200.865 206.935 200.865 L 206.087 200.865 206.017 196.664 C 205.951 192.792,205.910 192.415,205.491 191.853 C 204.259 190.203,202.765 190.132,201.181 191.650 L 200.216 192.575 200.216 196.720 L 200.216 200.865 199.479 200.865 L 198.743 200.865 198.655 195.730 C 198.607 192.905,198.490 190.424,198.396 190.216 C 198.247 189.889,198.345 189.838,199.112 189.838 C 199.955 189.838,200.000 189.871,200.000 190.486 C 200.000 191.245,200.135 191.287,200.743 190.717 C 201.962 189.575,203.907 189.294,205.522 190.028 M230.825 190.030 C 232.822 190.937,234.162 192.813,234.162 194.700 L 234.162 195.676 229.489 195.676 L 224.817 195.676 224.965 196.486 C 225.638 200.169,229.552 201.317,232.358 198.656 C 233.424 197.645,234.051 198.105,233.094 199.196 C 230.992 201.590,227.018 201.734,224.684 199.501 C 220.203 195.214,225.216 187.483,230.825 190.030 M242.548 190.141 C 243.109 190.426,243.795 190.904,244.073 191.201 L 244.578 191.743 244.123 191.887 C 243.804 191.988,243.471 191.867,243.013 191.481 C 241.616 190.305,239.558 190.247,238.454 191.351 C 237.212 192.593,237.820 193.549,240.390 194.395 C 243.674 195.475,244.876 196.506,244.685 198.078 C 244.287 201.353,238.796 202.241,236.032 199.477 C 235.153 198.598,235.080 198.379,235.598 198.180 C 235.820 198.095,236.066 198.206,236.256 198.478 C 237.453 200.187,240.835 200.662,242.106 199.300 C 243.456 197.853,242.686 196.724,239.699 195.773 C 236.581 194.779,235.533 193.675,235.989 191.860 C 236.481 189.899,240.172 188.931,242.548 190.141 M252.482 189.953 C 253.423 190.346,254.703 191.287,254.703 191.585 C 254.703 192.053,254.036 192.008,253.362 191.495 C 251.219 189.863,248.216 190.487,248.216 192.564 C 248.216 193.420,248.611 193.692,251.152 194.587 C 254.278 195.689,254.906 196.245,254.914 197.917 C 254.929 201.203,249.483 202.265,246.418 199.574 C 245.980 199.189,245.622 198.744,245.622 198.585 C 245.622 197.995,246.111 198.024,246.775 198.654 C 249.176 200.931,252.973 200.488,252.973 197.932 C 252.973 197.037,252.357 196.572,250.270 195.893 C 247.167 194.882,246.270 194.125,246.270 192.515 C 246.270 190.277,249.787 188.827,252.482 189.953 M308.441 190.028 C 310.494 190.960,310.863 192.004,310.958 197.135 L 311.027 200.865 310.239 200.865 C 309.428 200.865,309.189 200.611,309.189 199.747 C 309.189 199.345,309.137 199.357,308.486 199.905 C 305.542 202.388,300.757 200.812,300.757 197.359 C 300.757 194.446,304.406 192.818,307.931 194.157 C 309.291 194.674,309.254 194.704,308.958 193.323 C 308.358 190.524,305.706 189.700,303.087 191.498 C 302.006 192.240,301.309 192.041,302.076 191.209 C 303.438 189.730,306.524 189.157,308.441 190.028 M322.076 190.139 C 324.092 191.078,324.206 191.406,324.283 196.486 L 324.349 200.865 323.472 200.865 L 322.595 200.865 322.590 197.027 C 322.584 192.401,322.356 191.614,320.818 190.916 C 319.599 190.363,319.218 190.380,317.881 191.046 C 315.914 192.026,315.892 192.089,315.892 196.786 L 315.892 200.865 315.047 200.865 L 314.202 200.865 314.115 195.730 C 314.067 192.905,313.950 190.424,313.855 190.216 C 313.705 189.886,313.810 189.838,314.680 189.838 C 315.642 189.838,315.676 189.860,315.676 190.486 C 315.676 191.239,315.853 191.288,316.565 190.734 C 318.193 189.469,320.176 189.255,322.076 190.139 M334.403 190.035 C 336.375 190.931,336.830 192.257,336.914 197.361 L 336.973 200.885 336.108 200.821 C 335.304 200.761,335.238 200.707,335.175 200.047 L 335.107 199.337 334.418 199.917 C 330.573 203.160,324.497 199.215,327.266 195.274 C 328.249 193.876,331.426 193.321,333.784 194.136 L 334.919 194.528 334.919 193.783 C 334.919 190.834,331.847 189.643,329.008 191.491 C 327.915 192.202,327.276 192.019,328.022 191.209 C 329.390 189.723,332.469 189.157,334.403 190.035 M346.731 189.974 C 347.140 190.168,347.762 190.596,348.115 190.926 L 348.757 191.525 348.757 191.023 C 348.757 190.089,348.979 189.838,349.807 189.838 L 350.595 189.838 350.539 193.351 C 350.405 201.809,350.393 201.997,349.904 202.919 C 348.156 206.213,343.366 206.909,340.783 204.243 C 340.153 203.593,340.122 203.501,340.444 203.234 C 340.747 202.982,340.828 202.992,341.002 203.303 C 341.305 203.844,342.902 204.695,343.922 204.859 C 346.574 205.285,348.525 203.466,348.536 200.557 L 348.541 199.276 348.051 199.736 C 344.889 202.707,339.180 199.816,339.180 195.243 C 339.180 191.360,343.419 188.402,346.731 189.974 M360.452 189.918 C 362.412 190.619,363.833 192.422,364.045 194.476 L 364.169 195.676 359.461 195.676 L 354.754 195.676 354.875 196.576 C 355.346 200.091,360.152 201.376,362.354 198.576 C 362.629 198.227,362.931 198.054,363.131 198.131 C 363.650 198.330,363.521 198.701,362.652 199.521 C 359.868 202.147,355.104 201.381,353.439 198.039 C 351.096 193.339,355.560 188.170,360.452 189.918 M55.136 193.351 C 55.138 197.185,55.302 198.138,56.132 199.125 C 57.294 200.505,59.240 200.460,60.930 199.013 L 61.838 198.237 61.838 194.037 L 61.838 189.838 62.811 189.838 L 63.784 189.838 63.784 194.676 C 63.784 197.336,63.846 199.824,63.922 200.203 L 64.060 200.893 63.111 200.825 C 62.213 200.760,62.159 200.719,62.094 200.047 L 62.026 199.337 61.337 199.917 C 58.874 201.995,54.678 201.178,53.635 198.418 C 53.503 198.069,53.405 196.114,53.405 193.824 L 53.405 189.838 54.270 189.838 L 55.135 189.838 55.136 193.351 M264.216 193.553 C 264.216 197.995,264.484 198.885,266.031 199.587 C 267.187 200.112,267.562 200.099,268.882 199.484 C 270.857 198.565,270.919 198.393,270.919 193.809 L 270.919 189.838 271.784 189.838 L 272.649 189.838 272.649 195.791 C 272.649 202.267,272.581 202.707,271.394 203.973 C 269.364 206.138,265.159 206.154,263.140 204.005 C 262.365 203.180,262.939 202.548,263.763 203.318 C 266.801 206.156,270.919 204.390,270.919 200.250 L 270.919 199.360 269.933 200.055 C 267.802 201.558,264.168 200.902,262.977 198.800 C 262.524 198.000,262.493 197.687,262.490 193.892 L 262.486 189.838 263.351 189.838 L 264.216 189.838 264.216 193.553 M44.000 190.810 C 40.302 192.112,40.535 198.980,44.312 199.997 C 46.894 200.692,49.133 198.529,49.134 195.336 C 49.136 191.988,46.715 189.854,44.000 190.810 M100.393 190.907 C 99.310 191.398,98.391 192.679,98.223 193.930 L 98.105 194.811 101.809 194.811 C 105.984 194.811,105.898 194.854,105.178 193.128 C 104.268 190.946,102.309 190.037,100.393 190.907 M177.212 190.704 C 175.965 191.091,174.504 193.035,174.491 194.324 C 174.486 194.810,174.493 194.811,178.162 194.811 L 181.838 194.811 181.838 194.230 C 181.838 192.049,179.246 190.074,177.212 190.704 M227.590 190.704 C 226.343 191.091,224.882 193.035,224.870 194.324 C 224.865 194.810,224.871 194.811,228.541 194.811 L 232.216 194.811 232.216 194.230 C 232.216 192.049,229.625 190.074,227.590 190.704 M343.914 190.711 C 341.620 191.398,340.345 195.120,341.577 197.534 C 342.903 200.134,345.451 200.665,347.633 198.797 L 348.541 198.020 348.541 195.301 L 348.541 192.582 347.678 191.761 C 346.507 190.647,345.275 190.304,343.914 190.711 M357.041 190.907 C 355.959 191.398,355.040 192.679,354.872 193.930 L 354.754 194.811 358.458 194.811 C 362.632 194.811,362.547 194.854,361.827 193.128 C 360.917 190.946,358.957 190.037,357.041 190.907 M370.270 190.810 C 367.876 191.653,366.853 195.277,368.245 197.984 C 369.489 200.400,372.086 200.847,374.228 199.013 L 375.135 198.237 375.135 195.472 C 375.135 192.246,374.964 191.871,373.098 191.002 C 371.837 190.415,371.465 190.389,370.270 190.810 M112.721 194.824 C 110.989 195.346,110.301 197.718,111.475 199.115 C 113.287 201.268,117.513 199.608,117.361 196.802 L 117.297 195.623 116.310 195.236 C 115.023 194.732,113.577 194.566,112.721 194.824 M188.980 194.877 C 187.452 195.404,186.787 197.411,187.665 198.851 C 189.252 201.455,193.866 199.812,193.687 196.707 L 193.622 195.568 192.216 195.089 C 190.625 194.547,190.049 194.509,188.980 194.877 M304.504 194.824 C 302.773 195.346,302.084 197.718,303.259 199.115 C 305.071 201.268,309.297 199.608,309.145 196.802 L 309.081 195.623 308.094 195.236 C 306.807 194.732,305.361 194.566,304.504 194.824 M330.378 194.827 C 327.027 196.230,328.746 200.963,332.264 200.016 C 333.940 199.565,334.919 198.432,334.919 196.944 L 334.919 195.651 334.000 195.245 C 332.843 194.734,331.085 194.531,330.378 194.827 M151.741 199.178 C 152.580 200.018,151.668 202.495,150.237 203.261 C 149.554 203.627,149.482 202.892,150.137 202.236 C 150.705 201.668,150.885 201.081,150.491 201.081 C 150.375 201.081,150.121 200.838,149.926 200.541 C 149.240 199.493,150.848 198.285,151.741 199.178 "
          stroke="none"
          fill="none"
          fill-rule="evenodd"></path>
    <path id="path1"
          d="M157.838 22.813 C 139.081 25.284,121.118 36.895,108.813 54.503 C 105.756 58.877,101.845 63.865,101.203 64.209 C 100.102 64.798,97.268 61.934,93.401 56.324 C 83.972 42.647,72.955 34.803,61.059 33.294 C 46.263 31.419,41.171 34.311,36.928 47.002 C 31.958 61.867,35.663 75.033,51.661 99.351 C 57.219 107.799,59.569 111.649,59.366 111.976 C 58.962 112.630,55.740 113.049,49.189 113.300 C 37.383 113.752,30.054 114.700,30.054 115.776 C 30.054 116.771,37.877 117.361,52.000 117.430 C 55.568 117.448,59.560 117.522,60.872 117.596 L 63.257 117.730 70.709 125.522 C 88.829 144.466,95.833 152.279,101.660 160.048 L 104.372 163.664 114.953 151.832 C 120.772 145.324,130.900 133.914,137.459 126.475 L 149.385 112.950 164.801 112.682 C 173.279 112.535,184.328 112.354,189.353 112.280 C 194.378 112.207,198.462 112.120,198.430 112.088 C 198.398 112.055,194.578 111.925,189.942 111.798 C 167.317 111.180,153.514 110.236,153.514 109.307 C 153.514 108.742,159.813 99.080,168.321 86.595 C 186.774 59.516,190.943 46.339,184.992 33.897 C 181.706 27.026,179.295 25.526,167.361 22.931 C 164.998 22.417,161.204 22.370,157.838 22.813 M167.981 26.493 C 172.546 27.366,176.276 29.356,180.029 32.921 C 182.886 35.634,183.534 37.855,183.131 43.541 C 182.074 58.440,178.364 66.475,162.326 88.597 C 149.047 106.912,137.865 115.561,132.711 111.499 C 131.357 110.433,131.331 98.526,132.650 83.784 C 136.190 44.223,133.761 43.004,121.877 78.378 C 113.713 102.678,112.748 103.519,109.290 89.353 C 108.528 86.232,107.754 83.389,107.571 83.035 C 105.856 79.717,103.737 85.252,98.912 105.646 C 97.875 110.033,96.963 113.740,96.887 113.884 C 96.811 114.028,94.864 110.136,92.562 105.235 C 85.569 90.354,82.017 84.108,80.545 84.108 C 79.536 84.108,78.055 90.265,77.087 98.486 C 75.408 112.744,74.399 115.044,70.354 113.843 C 66.718 112.763,60.366 105.554,51.953 92.958 C 42.794 79.247,40.121 72.949,39.335 63.232 C 37.498 40.495,49.909 29.408,67.760 37.842 C 72.416 40.043,82.149 49.369,89.658 58.827 C 93.839 64.093,96.175 67.692,99.155 73.456 C 100.214 75.506,101.130 77.182,101.189 77.181 C 101.249 77.180,102.903 74.051,104.865 70.226 C 109.206 61.766,110.569 59.360,112.958 55.940 C 123.774 40.460,141.606 28.463,156.865 26.399 C 157.816 26.270,158.886 26.123,159.243 26.072 C 160.560 25.884,166.218 26.156,167.981 26.493 M127.936 79.514 C 128.225 80.877,128.047 89.532,127.565 97.572 C 126.571 114.128,126.762 114.943,131.715 115.258 C 135.797 115.518,137.802 116.365,137.395 117.657 C 136.284 121.187,107.445 154.378,105.489 154.378 C 102.928 154.378,74.130 123.996,73.208 120.322 C 72.934 119.229,74.618 117.622,76.039 117.622 C 78.937 117.622,79.712 115.933,80.006 108.973 C 80.282 102.437,81.040 98.530,82.093 98.213 C 83.033 97.930,85.781 101.824,89.304 108.432 C 94.776 118.696,97.435 122.567,98.591 121.948 C 99.730 121.339,101.102 117.212,102.155 111.235 C 104.300 99.056,106.964 96.704,108.867 105.309 C 109.741 109.259,111.213 113.203,112.082 113.924 C 113.165 114.823,115.540 109.820,120.180 96.865 C 126.332 79.691,127.445 77.200,127.936 79.514 "
          stroke="none"
          fill="#ffffff"
          fill-rule="evenodd"></path>
    <path id="path2"
          d="M174.404 116.764 C 171.078 117.760,171.570 122.800,175.032 123.190 C 178.609 123.594,179.892 118.687,176.644 117.027 C 175.623 116.505,175.369 116.475,174.404 116.764 M264.108 116.867 C 249.014 119.048,240.980 134.976,248.024 148.757 C 254.808 162.029,274.191 164.096,283.520 152.541 L 284.567 151.243 283.772 150.550 L 282.977 149.857 281.218 151.641 C 267.438 165.614,246.871 153.405,250.938 133.667 C 253.980 118.904,270.852 114.236,280.707 125.431 C 281.969 126.865,282.042 126.890,282.865 126.166 C 283.726 125.408,283.646 125.209,281.676 123.190 C 276.747 118.140,270.603 115.929,264.108 116.867 M192.485 120.703 C 192.366 120.851,192.110 121.605,191.916 122.378 C 191.569 123.759,190.774 126.791,190.288 128.589 L 190.041 129.502 186.966 129.562 L 183.892 129.622 183.827 130.859 L 183.763 132.096 186.746 132.156 L 189.730 132.216 189.845 142.270 C 189.931 149.806,190.032 152.541,190.248 153.189 C 192.656 160.424,201.605 162.552,206.873 157.143 C 208.294 155.684,208.331 155.571,207.562 155.023 L 206.903 154.554 205.922 155.459 C 202.773 158.361,198.252 158.289,195.972 155.300 C 194.286 153.089,194.282 153.061,194.206 142.000 L 194.138 132.108 198.665 132.108 L 203.192 132.108 203.434 131.147 C 203.878 129.384,204.236 129.514,198.919 129.514 L 194.162 129.514 194.162 125.232 C 194.162 122.191,194.087 120.876,193.903 120.692 C 193.564 120.353,192.760 120.359,192.485 120.703 M221.189 129.630 C 218.324 130.425,213.514 133.538,213.514 134.597 C 213.514 135.596,214.568 135.716,215.595 134.835 C 222.919 128.543,233.514 132.203,233.514 141.024 C 233.514 142.778,233.498 142.789,232.031 142.123 C 226.438 139.584,221.422 139.246,216.856 141.102 C 208.695 144.418,208.335 154.852,216.252 158.591 C 222.057 161.332,227.293 160.548,231.927 156.242 C 233.804 154.498,233.729 154.473,233.968 156.909 C 234.276 160.042,234.042 159.784,236.570 159.784 C 238.730 159.784,238.752 159.779,238.616 159.297 C 238.050 157.285,237.845 154.032,237.838 146.919 C 237.827 136.154,236.765 133.141,232.145 130.772 C 229.543 129.438,223.972 128.857,221.189 129.630 M298.631 129.636 C 296.316 130.259,293.754 131.751,291.838 133.592 C 290.629 134.753,290.616 134.807,291.452 135.240 C 292.079 135.564,292.121 135.551,293.236 134.700 C 299.599 129.846,307.899 131.075,310.281 137.223 C 310.726 138.372,311.188 142.703,310.866 142.703 C 310.809 142.703,310.141 142.423,309.381 142.082 C 298.265 137.087,287.580 141.361,288.035 150.620 C 288.512 160.295,303.958 163.619,310.277 155.405 C 311.024 154.434,311.348 154.626,311.372 156.054 C 311.384 156.738,311.505 157.832,311.642 158.486 L 311.892 159.676 314.030 159.738 L 316.167 159.800 316.020 158.981 C 315.543 156.334,315.468 154.896,315.464 148.427 C 315.457 137.614,315.011 135.572,311.996 132.557 C 309.283 129.844,302.978 128.466,298.631 129.636 M336.866 129.457 C 335.110 129.784,332.270 131.515,330.275 133.472 L 328.981 134.743 328.689 132.400 C 328.322 129.450,328.380 129.514,326.040 129.514 C 323.742 129.514,323.862 129.329,324.346 132.108 C 324.698 134.130,324.742 135.770,324.749 147.081 L 324.757 159.784 326.919 159.784 L 329.081 159.784 329.081 148.687 L 329.081 137.590 330.267 136.375 C 333.604 132.958,338.234 131.314,341.387 132.426 C 342.079 132.670,342.309 132.683,342.378 132.480 C 342.996 130.643,343.163 129.664,342.888 129.490 C 342.589 129.300,337.845 129.274,336.866 129.457 M357.946 129.514 C 347.119 131.554,342.118 144.830,348.742 153.946 C 354.515 161.890,367.045 162.216,373.394 154.587 C 374.597 153.142,374.626 152.988,373.813 152.381 L 373.275 151.980 371.556 153.666 C 364.142 160.939,352.443 157.711,350.691 147.909 C 350.261 145.502,348.911 145.741,363.290 145.677 L 375.892 145.622 375.877 143.135 C 375.824 134.404,367.114 127.788,357.946 129.514 M172.973 144.649 L 172.973 159.784 175.135 159.784 L 177.297 159.784 177.297 144.649 L 177.297 129.514 175.135 129.514 L 172.973 129.514 172.973 144.649 M362.854 131.916 C 367.300 132.846,371.201 137.524,371.323 142.071 L 371.351 143.141 360.973 143.146 L 350.595 143.151 350.527 142.378 C 350.010 136.470,356.857 130.660,362.854 131.916 M227.681 143.009 C 229.905 143.576,230.392 143.743,232.270 144.584 L 233.514 145.140 233.514 148.412 L 233.514 151.684 232.637 152.745 C 226.347 160.356,215.191 158.632,215.258 150.058 C 215.303 144.141,220.517 141.182,227.681 143.009 M305.144 143.010 C 306.280 143.298,308.020 143.862,309.010 144.263 L 310.811 144.992 310.870 148.495 L 310.930 151.997 309.179 153.726 C 302.442 160.383,292.865 158.227,292.865 150.054 C 292.865 144.053,297.890 141.170,305.144 143.010 "
          stroke="#08b2d9"
          stroke-width="1"
          fill="#08b2d9"
          fill-rule="evenodd"></path>
    
    <path id="path6"
          d="M162.649 22.428 C 163.095 22.474,163.824 22.474,164.270 22.428 C 164.716 22.381,164.351 22.343,163.459 22.343 C 162.568 22.343,162.203 22.381,162.649 22.428 M162.973 26.099 C 163.241 26.150,163.678 26.150,163.946 26.099 C 164.214 26.047,163.995 26.005,163.459 26.005 C 162.924 26.005,162.705 26.047,162.973 26.099 M54.867 32.802 C 55.136 32.853,55.526 32.851,55.732 32.797 C 55.939 32.743,55.719 32.701,55.243 32.703 C 54.768 32.706,54.598 32.750,54.867 32.802 M183.197 40.757 C 183.199 41.351,183.241 41.569,183.290 41.240 C 183.340 40.912,183.339 40.425,183.287 40.159 C 183.236 39.893,183.195 40.162,183.197 40.757 M187.510 43.243 C 187.510 43.659,187.554 43.830,187.609 43.622 C 187.663 43.414,187.663 43.073,187.609 42.865 C 187.554 42.657,187.510 42.827,187.510 43.243 M80.865 48.933 C 80.865 48.970,81.181 49.286,81.568 49.635 L 82.270 50.270 81.635 49.568 C 81.043 48.913,80.865 48.765,80.865 48.933 M39.190 56.324 C 39.192 56.800,39.236 56.969,39.288 56.700 C 39.340 56.431,39.338 56.042,39.284 55.835 C 39.230 55.629,39.187 55.849,39.190 56.324 M134.119 59.027 C 134.119 59.681,134.159 59.949,134.209 59.622 C 134.258 59.295,134.258 58.759,134.209 58.432 C 134.159 58.105,134.119 58.373,134.119 59.027 M34.865 58.919 C 34.868 59.395,34.912 59.564,34.964 59.295 C 35.015 59.026,35.013 58.637,34.959 58.430 C 34.905 58.223,34.863 58.443,34.865 58.919 M39.197 61.081 C 39.199 61.676,39.241 61.893,39.290 61.565 C 39.340 61.236,39.339 60.749,39.287 60.484 C 39.236 60.218,39.195 60.486,39.197 61.081 M134.125 61.730 C 134.126 62.562,134.165 62.876,134.212 62.428 C 134.259 61.979,134.258 61.298,134.210 60.914 C 134.162 60.530,134.124 60.897,134.125 61.730 M101.716 63.622 L 101.081 64.324 101.784 63.689 C 102.170 63.340,102.486 63.024,102.486 62.987 C 102.486 62.820,102.308 62.967,101.716 63.622 M133.888 67.027 C 133.888 67.443,133.932 67.614,133.987 67.405 C 134.041 67.197,134.041 66.857,133.987 66.649 C 133.932 66.441,133.888 66.611,133.888 67.027 M128.079 83.784 C 128.080 84.973,128.116 85.432,128.160 84.804 C 128.203 84.175,128.203 83.202,128.159 82.641 C 128.114 82.081,128.078 82.595,128.079 83.784 M127.838 91.135 C 127.841 91.611,127.885 91.780,127.937 91.511 C 127.988 91.242,127.986 90.853,127.932 90.646 C 127.878 90.439,127.836 90.659,127.838 91.135 M131.942 93.405 C 131.942 93.822,131.987 93.992,132.041 93.784 C 132.095 93.576,132.095 93.235,132.041 93.027 C 131.987 92.819,131.942 92.989,131.942 93.405 M127.618 95.135 C 127.618 95.551,127.662 95.722,127.717 95.514 C 127.771 95.305,127.771 94.965,127.717 94.757 C 127.662 94.549,127.618 94.719,127.618 95.135 M131.735 97.514 C 131.735 98.049,131.777 98.268,131.828 98.000 C 131.880 97.732,131.880 97.295,131.828 97.027 C 131.777 96.759,131.735 96.978,131.735 97.514 M127.402 98.811 C 127.402 99.227,127.446 99.397,127.500 99.189 C 127.555 98.981,127.555 98.641,127.500 98.432 C 127.446 98.224,127.402 98.395,127.402 98.811 M127.185 102.270 C 127.185 102.686,127.230 102.857,127.284 102.649 C 127.339 102.441,127.339 102.100,127.284 101.892 C 127.230 101.684,127.185 101.854,127.185 102.270 M80.055 106.703 C 80.057 107.178,80.101 107.348,80.153 107.079 C 80.205 106.810,80.203 106.420,80.149 106.214 C 80.094 106.007,80.052 106.227,80.055 106.703 M126.999 108.973 C 126.999 110.222,127.035 110.732,127.078 110.108 C 127.122 109.484,127.122 108.462,127.078 107.838 C 127.035 107.214,126.999 107.724,126.999 108.973 M65.730 110.811 C 66.133 111.227,66.512 111.568,66.571 111.568 C 66.631 111.568,66.349 111.227,65.946 110.811 C 65.543 110.395,65.164 110.054,65.104 110.054 C 65.045 110.054,65.326 110.395,65.730 110.811 M169.027 111.072 C 169.295 111.123,169.732 111.123,170.000 111.072 C 170.268 111.020,170.049 110.978,169.514 110.978 C 168.978 110.978,168.759 111.020,169.027 111.072 M173.784 111.288 C 174.051 111.339,174.489 111.339,174.757 111.288 C 175.024 111.236,174.805 111.194,174.270 111.194 C 173.735 111.194,173.516 111.236,173.784 111.288 M178.968 111.507 C 179.352 111.555,180.033 111.556,180.482 111.509 C 180.930 111.462,180.616 111.423,179.784 111.422 C 178.951 111.421,178.584 111.460,178.968 111.507 M186.752 111.724 C 187.136 111.771,187.817 111.772,188.265 111.725 C 188.714 111.679,188.400 111.639,187.568 111.639 C 186.735 111.638,186.368 111.676,186.752 111.724 M194.761 111.940 C 195.149 111.989,195.733 111.988,196.058 111.938 C 196.383 111.889,196.065 111.850,195.351 111.851 C 194.638 111.852,194.372 111.892,194.761 111.940 M199.085 112.157 C 199.474 112.205,200.057 112.204,200.382 112.154 C 200.707 112.105,200.389 112.066,199.676 112.067 C 198.962 112.068,198.696 112.109,199.085 112.157 M186.649 112.376 C 187.332 112.419,188.451 112.419,189.135 112.376 C 189.819 112.333,189.259 112.298,187.892 112.298 C 186.524 112.298,185.965 112.333,186.649 112.376 M174.223 112.592 C 174.852 112.636,175.825 112.635,176.386 112.591 C 176.947 112.547,176.432 112.511,175.243 112.511 C 174.054 112.512,173.595 112.548,174.223 112.592 M162.332 112.808 C 162.960 112.852,163.933 112.852,164.494 112.807 C 165.055 112.763,164.541 112.727,163.351 112.728 C 162.162 112.728,161.703 112.764,162.332 112.808 M150.432 113.024 C 151.057 113.068,152.078 113.068,152.703 113.024 C 153.327 112.981,152.816 112.945,151.568 112.945 C 150.319 112.945,149.808 112.981,150.432 113.024 M50.536 113.237 C 50.920 113.285,51.601 113.286,52.049 113.239 C 52.498 113.192,52.184 113.153,51.351 113.152 C 50.519 113.151,50.152 113.189,50.536 113.237 M45.354 113.450 C 45.623 113.502,46.012 113.500,46.219 113.446 C 46.425 113.392,46.205 113.349,45.730 113.352 C 45.254 113.354,45.085 113.399,45.354 113.450 M41.351 113.663 C 41.559 113.717,41.900 113.717,42.108 113.663 C 42.316 113.608,42.146 113.564,41.730 113.564 C 41.314 113.564,41.143 113.608,41.351 113.663 M35.946 117.122 C 36.154 117.176,36.495 117.176,36.703 117.122 C 36.911 117.068,36.741 117.023,36.324 117.023 C 35.908 117.023,35.738 117.068,35.946 117.122 M40.486 117.348 C 41.051 117.393,41.976 117.393,42.541 117.348 C 43.105 117.304,42.643 117.267,41.514 117.267 C 40.384 117.267,39.922 117.304,40.486 117.348 M54.982 117.566 C 55.790 117.608,57.054 117.607,57.793 117.565 C 58.531 117.523,57.870 117.489,56.324 117.489 C 54.778 117.490,54.174 117.524,54.982 117.566 M96.649 120.933 C 96.649 120.970,96.965 121.286,97.351 121.635 L 98.054 122.270 97.419 121.568 C 96.827 120.913,96.649 120.765,96.649 120.933 M67.459 122.270 C 68.105 122.924,68.683 123.459,68.742 123.459 C 68.801 123.459,68.322 122.924,67.676 122.270 C 67.030 121.616,66.453 121.081,66.393 121.081 C 66.334 121.081,66.814 121.616,67.459 122.270 M72.432 127.459 C 72.836 127.876,73.215 128.216,73.274 128.216 C 73.333 128.216,73.052 127.876,72.649 127.459 C 72.245 127.043,71.867 126.703,71.807 126.703 C 71.748 126.703,72.029 127.043,72.432 127.459 M77.081 132.324 C 77.546 132.800,77.974 133.189,78.034 133.189 C 78.093 133.189,77.762 132.800,77.297 132.324 C 76.833 131.849,76.404 131.459,76.345 131.459 C 76.285 131.459,76.617 131.849,77.081 132.324 M95.676 145.946 C 97.456 147.730,98.962 149.189,99.022 149.189 C 99.081 149.189,97.673 147.730,95.892 145.946 C 94.111 144.162,92.605 142.703,92.546 142.703 C 92.486 142.703,93.895 144.162,95.676 145.946 "
          stroke="none"
          fill="#7c7c7c"
          fill-rule="evenodd"></path>
    <path id="path7"
          d="M193.459 112.369 C 193.727 112.420,194.165 112.420,194.432 112.369 C 194.700 112.317,194.481 112.275,193.946 112.275 C 193.411 112.275,193.192 112.317,193.459 112.369 M180.054 112.585 C 180.322 112.637,180.759 112.637,181.027 112.585 C 181.295 112.533,181.076 112.491,180.541 112.491 C 180.005 112.491,179.786 112.533,180.054 112.585 M167.948 112.802 C 168.217 112.853,168.607 112.851,168.813 112.797 C 169.020 112.743,168.800 112.701,168.324 112.703 C 167.849 112.706,167.680 112.750,167.948 112.802 M156.162 113.014 C 156.370 113.068,156.711 113.068,156.919 113.014 C 157.127 112.960,156.957 112.915,156.541 112.915 C 156.124 112.915,155.954 112.960,156.162 113.014 M49.243 117.558 C 49.511 117.610,49.949 117.610,50.216 117.558 C 50.484 117.506,50.265 117.464,49.730 117.464 C 49.195 117.464,48.976 117.506,49.243 117.558 M266.324 119.292 C 266.711 119.340,267.343 119.340,267.730 119.292 C 268.116 119.244,267.800 119.204,267.027 119.204 C 266.254 119.204,265.938 119.244,266.324 119.292 M194.253 124.973 C 194.253 127.292,194.284 128.241,194.323 127.081 C 194.362 125.922,194.362 124.024,194.323 122.865 C 194.284 121.705,194.253 122.654,194.253 124.973 M341.243 129.230 C 341.451 129.285,341.792 129.285,342.000 129.230 C 342.208 129.176,342.038 129.131,341.622 129.131 C 341.205 129.131,341.035 129.176,341.243 129.230 M177.400 144.757 C 177.400 153.081,177.427 156.455,177.459 152.254 C 177.492 148.054,177.492 141.243,177.459 137.119 C 177.426 132.996,177.400 136.432,177.400 144.757 M224.057 131.831 C 224.386 131.881,224.872 131.879,225.138 131.828 C 225.404 131.777,225.135 131.736,224.541 131.738 C 223.946 131.739,223.728 131.781,224.057 131.831 M234.486 132.541 C 234.951 133.016,235.380 133.405,235.439 133.405 C 235.499 133.405,235.167 133.016,234.703 132.541 C 234.238 132.065,233.810 131.676,233.750 131.676 C 233.691 131.676,234.022 132.065,234.486 132.541 M301.459 131.831 C 301.786 131.880,302.322 131.880,302.649 131.831 C 302.976 131.781,302.708 131.740,302.054 131.740 C 301.400 131.740,301.132 131.781,301.459 131.831 M360.597 131.829 C 360.866 131.880,361.255 131.878,361.462 131.824 C 361.669 131.770,361.449 131.728,360.973 131.730 C 360.497 131.733,360.328 131.777,360.597 131.829 M194.261 141.189 C 194.261 146.005,194.289 147.976,194.324 145.568 C 194.359 143.159,194.359 139.219,194.324 136.811 C 194.289 134.403,194.261 136.373,194.261 141.189 M329.182 148.757 C 329.182 154.881,329.209 157.386,329.243 154.324 C 329.277 151.262,329.277 146.251,329.243 143.189 C 329.209 140.127,329.182 142.632,329.182 148.757 M233.295 141.233 C 233.237 142.031,233.267 142.604,233.363 142.508 C 233.459 142.412,233.506 141.760,233.468 141.059 L 233.400 139.784 233.295 141.233 M345.583 144.649 C 345.583 145.422,345.622 145.738,345.670 145.351 C 345.718 144.965,345.718 144.332,345.670 143.946 C 345.622 143.559,345.583 143.876,345.583 144.649 M233.384 148.432 C 233.384 150.216,233.418 150.917,233.458 149.990 C 233.499 149.063,233.499 147.604,233.458 146.747 C 233.417 145.890,233.383 146.649,233.384 148.432 M356.919 145.892 C 360.397 145.925,366.089 145.925,369.568 145.892 C 373.046 145.858,370.200 145.831,363.243 145.831 C 356.286 145.831,353.441 145.858,356.919 145.892 M292.824 149.730 C 292.825 150.443,292.865 150.709,292.913 150.320 C 292.962 149.932,292.961 149.348,292.911 149.023 C 292.862 148.698,292.823 149.016,292.824 149.730 M287.846 150.162 C 287.847 150.757,287.889 150.974,287.939 150.646 C 287.989 150.317,287.987 149.831,287.936 149.565 C 287.885 149.299,287.844 149.568,287.846 150.162 M371.770 153.351 L 371.135 154.054 371.838 153.419 C 372.493 152.827,372.640 152.649,372.473 152.649 C 372.436 152.649,372.119 152.965,371.770 153.351 M251.450 153.784 C 252.346 154.738,252.541 154.910,252.541 154.748 C 252.541 154.713,252.078 154.251,251.514 153.721 L 250.486 152.757 251.450 153.784 M354.054 154.378 C 354.519 154.854,354.947 155.243,355.007 155.243 C 355.066 155.243,354.735 154.854,354.270 154.378 C 353.806 153.903,353.377 153.514,353.318 153.514 C 353.258 153.514,353.590 153.903,354.054 154.378 M206.042 155.189 L 205.297 156.000 206.108 155.255 C 206.863 154.561,207.018 154.378,206.853 154.378 C 206.817 154.378,206.452 154.743,206.042 155.189 M311.185 155.892 C 311.185 156.308,311.230 156.478,311.284 156.270 C 311.339 156.062,311.339 155.722,311.284 155.514 C 311.230 155.305,311.185 155.476,311.185 155.892 M174.108 159.943 C 174.673 159.987,175.597 159.987,176.162 159.943 C 176.727 159.898,176.265 159.862,175.135 159.862 C 174.005 159.862,173.543 159.898,174.108 159.943 M235.736 159.943 C 236.305 159.988,237.180 159.987,237.682 159.942 C 238.184 159.896,237.719 159.860,236.649 159.861 C 235.578 159.861,235.168 159.898,235.736 159.943 M313.135 159.943 C 313.700 159.987,314.624 159.987,315.189 159.943 C 315.754 159.898,315.292 159.862,314.162 159.862 C 313.032 159.862,312.570 159.898,313.135 159.943 M325.892 159.943 C 326.457 159.987,327.381 159.987,327.946 159.943 C 328.511 159.898,328.049 159.862,326.919 159.862 C 325.789 159.862,325.327 159.898,325.892 159.943 M122.260 192.973 C 122.260 197.373,122.289 199.142,122.324 196.905 C 122.359 194.667,122.359 191.067,122.324 188.905 C 122.289 186.742,122.260 188.573,122.260 192.973 M218.692 192.973 C 218.693 197.373,218.721 199.142,218.757 196.905 C 218.792 194.667,218.792 191.067,218.756 188.905 C 218.721 186.742,218.692 188.573,218.692 192.973 M82.899 188.973 C 82.899 190.935,82.932 191.738,82.972 190.757 C 83.012 189.776,83.012 188.170,82.972 187.189 C 82.932 186.208,82.899 187.011,82.899 188.973 M130.020 188.216 C 130.021 189.168,130.059 189.530,130.105 189.021 C 130.150 188.513,130.150 187.734,130.103 187.292 C 130.057 186.849,130.019 187.265,130.020 188.216 M61.928 193.946 C 61.928 196.265,61.960 197.214,61.999 196.054 C 62.038 194.895,62.038 192.997,61.999 191.838 C 61.960 190.678,61.928 191.627,61.928 193.946 M130.033 194.054 C 130.034 195.957,130.067 196.706,130.107 195.719 C 130.147 194.733,130.147 193.176,130.106 192.260 C 130.066 191.344,130.033 192.151,130.033 194.054 M348.623 195.351 C 348.624 196.778,348.659 197.334,348.701 196.586 C 348.743 195.838,348.743 194.671,348.700 193.992 C 348.657 193.312,348.623 193.924,348.623 195.351 M82.900 197.189 C 82.900 199.270,82.932 200.122,82.972 199.081 C 83.011 198.041,83.011 196.338,82.972 195.297 C 82.932 194.257,82.900 195.108,82.900 197.189 M145.386 197.297 C 145.386 199.319,145.418 200.175,145.458 199.200 C 145.498 198.225,145.498 196.571,145.458 195.524 C 145.419 194.478,145.386 195.276,145.386 197.297 M213.710 197.297 C 213.710 199.319,213.742 200.175,213.782 199.200 C 213.822 198.225,213.822 196.571,213.783 195.524 C 213.743 194.478,213.710 195.276,213.710 197.297 M334.916 196.821 L 335.021 198.162 335.090 196.996 C 335.129 196.355,335.081 195.751,334.985 195.655 C 334.889 195.558,334.858 196.083,334.916 196.821 M30.785 198.378 C 30.786 199.805,30.821 200.361,30.863 199.613 C 30.905 198.865,30.905 197.698,30.862 197.019 C 30.819 196.339,30.785 196.951,30.785 198.378 M348.595 200.108 C 348.597 200.584,348.642 200.753,348.693 200.484 C 348.745 200.215,348.743 199.826,348.689 199.619 C 348.635 199.412,348.593 199.632,348.595 200.108 "
          stroke="none"
          fill="#cbe0d5"
          fill-rule="evenodd"></path>
    <path id="path8"
          d="M161.351 26.095 C 161.559 26.149,161.900 26.149,162.108 26.095 C 162.316 26.041,162.146 25.996,161.730 25.996 C 161.314 25.996,161.143 26.041,161.351 26.095 M180.000 33.081 C 180.464 33.557,180.893 33.946,180.953 33.946 C 181.012 33.946,180.681 33.557,180.216 33.081 C 179.752 32.605,179.323 32.216,179.264 32.216 C 179.204 32.216,179.536 32.605,180.000 33.081 M55.725 35.183 C 56.109 35.231,56.790 35.232,57.238 35.185 C 57.687 35.138,57.373 35.099,56.541 35.098 C 55.708 35.097,55.341 35.135,55.725 35.183 M121.399 45.892 L 120.108 47.243 121.459 45.953 C 122.203 45.243,122.811 44.635,122.811 44.601 C 122.811 44.442,122.597 44.637,121.399 45.892 M34.861 57.081 C 34.861 57.497,34.905 57.668,34.960 57.459 C 35.014 57.251,35.014 56.911,34.960 56.703 C 34.905 56.495,34.861 56.665,34.861 57.081 M39.204 58.595 C 39.204 59.368,39.244 59.684,39.292 59.297 C 39.340 58.911,39.340 58.278,39.292 57.892 C 39.244 57.505,39.204 57.822,39.204 58.595 M131.730 99.351 C 131.733 99.827,131.777 99.996,131.829 99.727 C 131.880 99.458,131.878 99.069,131.824 98.862 C 131.770 98.656,131.728 98.876,131.730 99.351 M80.074 109.297 C 80.075 110.249,80.113 110.611,80.159 110.102 C 80.204 109.594,80.204 108.815,80.157 108.373 C 80.111 107.930,80.073 108.346,80.074 109.297 M181.676 111.500 C 181.884 111.555,182.224 111.555,182.432 111.500 C 182.641 111.446,182.470 111.402,182.054 111.402 C 181.638 111.402,181.468 111.446,181.676 111.500 M189.243 111.717 C 189.451 111.771,189.792 111.771,190.000 111.717 C 190.208 111.662,190.038 111.618,189.622 111.618 C 189.205 111.618,189.035 111.662,189.243 111.717 M191.301 112.373 C 191.690 112.421,192.274 112.420,192.598 112.371 C 192.923 112.321,192.605 112.282,191.892 112.283 C 191.178 112.284,190.913 112.325,191.301 112.373 M178.219 112.588 C 178.548 112.637,179.034 112.636,179.300 112.585 C 179.566 112.533,179.297 112.493,178.703 112.494 C 178.108 112.496,177.891 112.538,178.219 112.588 M166.216 112.801 C 166.484 112.853,166.922 112.853,167.189 112.801 C 167.457 112.750,167.238 112.708,166.703 112.708 C 166.168 112.708,165.949 112.750,166.216 112.801 M154.435 113.020 C 154.764 113.070,155.251 113.068,155.516 113.017 C 155.782 112.966,155.514 112.925,154.919 112.927 C 154.324 112.928,154.107 112.970,154.435 113.020 M48.703 113.230 C 48.911 113.285,49.251 113.285,49.459 113.230 C 49.668 113.176,49.497 113.131,49.081 113.131 C 48.665 113.131,48.495 113.176,48.703 113.230 M51.189 117.562 C 51.576 117.610,52.208 117.610,52.595 117.562 C 52.981 117.514,52.665 117.475,51.892 117.475 C 51.119 117.475,50.803 117.514,51.189 117.562 M65.297 120.108 C 65.701 120.524,66.079 120.865,66.139 120.865 C 66.198 120.865,65.917 120.524,65.514 120.108 C 65.110 119.692,64.731 119.351,64.672 119.351 C 64.612 119.351,64.894 119.692,65.297 120.108 M70.703 125.730 C 71.106 126.146,71.485 126.486,71.544 126.486 C 71.604 126.486,71.322 126.146,70.919 125.730 C 70.516 125.314,70.137 124.973,70.077 124.973 C 70.018 124.973,70.299 125.314,70.703 125.730 "
          stroke="none"
          fill="#bcbcbc"
          fill-rule="evenodd"></path>
  </g>
</svg>